<svg width="44" height="88" viewBox="0 0 44 88" fill="none" xmlns="http://www.w3.org/2000/svg">
<path d="M39.0803 18.2672C39.1408 18.2076 39.178 18.133 39.1892 18.0543L39.1908 18.0432C39.2205 17.8513 39.0878 17.6578 38.8733 17.6253C38.8729 17.6252 38.8724 17.6252 38.872 17.6251L27.9654 16.04L27.445 15.9644L27.2124 15.4928L22.335 5.60481C22.2993 5.53215 22.2404 5.47326 22.1677 5.43751L22.1666 5.43694C21.9847 5.34715 21.7565 5.42034 21.6611 5.60883C21.6609 5.60939 21.6606 5.60995 21.6603 5.61051L16.7857 15.4928L16.5531 15.9644L16.0327 16.04L5.12297 17.6256L5.12057 17.6259C5.04216 17.6371 4.96779 17.6741 4.90833 17.7342C4.8394 17.8057 4.80145 17.9015 4.80277 18.0009C4.80409 18.1009 4.8451 18.1962 4.91669 18.266L12.81 25.9617L13.1865 26.3287L13.0976 26.8469L11.2327 37.7137L11.2325 37.715C11.2206 37.7837 11.2282 37.8543 11.2544 37.9188C11.2806 37.9834 11.3244 38.0393 11.3808 38.0803C11.4371 38.1212 11.5039 38.1455 11.5734 38.1505C11.6429 38.1554 11.7124 38.1408 11.774 38.1083L11.7755 38.1075L21.5337 32.977L21.9991 32.7323L22.4644 32.977L32.2226 38.1075L32.2271 38.1098C32.293 38.1449 32.3762 38.1591 32.4582 38.1449L32.4596 38.1446C32.6655 38.1091 32.8 37.9146 32.7654 37.7137L30.9006 26.8469L30.8117 26.3287L31.1881 25.9617L39.0803 18.2672ZM39.0803 18.2672C39.0801 18.2674 39.0805 18.267 39.0803 18.2672Z" stroke="#BAB9D9" stroke-width="2"/>
<path d="M27.2124 59.4928L27.445 59.9644L27.9654 60.04L38.872 61.6251C38.8724 61.6252 38.8729 61.6252 38.8733 61.6253C39.0878 61.6578 39.2205 61.8513 39.1908 62.0432L39.1892 62.0543C39.178 62.133 39.1408 62.2076 39.0803 62.2672C39.0805 62.267 39.0801 62.2674 39.0803 62.2672L31.1881 69.9617L30.8117 70.3287L30.9006 70.8469L32.7654 81.7137C32.8 81.9146 32.6655 82.1091 32.4596 82.1446L32.4582 82.1449C32.3762 82.1591 32.293 82.1449 32.2271 82.1098L32.2226 82.1075L22.4644 76.977L21.9991 76.7323L21.5337 76.977L11.7755 82.1075L11.774 82.1083C11.7124 82.1408 11.6429 82.1554 11.5734 82.1505C11.5039 82.1455 11.4371 82.1212 11.3808 82.0803C11.3244 82.0393 11.2806 81.9834 11.2544 81.9188C11.2282 81.8543 11.2206 81.7837 11.2325 81.715L11.2327 81.7137L13.0976 70.8469L13.1865 70.3287L12.81 69.9617L4.91669 62.266C4.8451 62.1962 4.80409 62.1009 4.80277 62.0009C4.80145 61.9015 4.8394 61.8057 4.90833 61.7342C4.96779 61.6741 5.04216 61.6371 5.12057 61.6259L5.12297 61.6256L16.0327 60.04L16.5531 59.9644L16.7857 59.4928L21.6603 49.6105C21.6606 49.6099 21.6609 49.6094 21.6611 49.6088C21.7565 49.4203 21.9847 49.3471 22.1666 49.4369L22.1677 49.4375C22.2404 49.4733 22.2993 49.5321 22.335 49.6048L27.2124 59.4928Z" fill="url(#paint0_linear_2_27)"/>
<path d="M39.0803 62.2672C39.1408 62.2076 39.178 62.133 39.1892 62.0543L39.1908 62.0432C39.2205 61.8513 39.0878 61.6578 38.8733 61.6253C38.8729 61.6252 38.8724 61.6252 38.872 61.6251L27.9654 60.04L27.445 59.9644L27.2124 59.4928L22.335 49.6048C22.2993 49.5321 22.2404 49.4733 22.1677 49.4375L22.1666 49.4369C21.9847 49.3471 21.7565 49.4203 21.6611 49.6088C21.6609 49.6094 21.6606 49.6099 21.6603 49.6105L16.7857 59.4928L16.5531 59.9644L16.0327 60.04L5.12297 61.6256L5.12057 61.6259C5.04216 61.6371 4.96779 61.6741 4.90833 61.7342C4.8394 61.8057 4.80145 61.9015 4.80277 62.0009C4.80409 62.1009 4.8451 62.1962 4.91669 62.266L12.81 69.9617L13.1865 70.3287L13.0976 70.8469L11.2327 81.7137L11.2325 81.715C11.2206 81.7837 11.2282 81.8543 11.2544 81.9188C11.2806 81.9834 11.3244 82.0393 11.3808 82.0803C11.4371 82.1212 11.5039 82.1455 11.5734 82.1505C11.6429 82.1554 11.7124 82.1408 11.774 82.1083L11.7755 82.1075L21.5337 76.977L21.9991 76.7323L22.4644 76.977L32.2226 82.1075L32.2271 82.1098C32.293 82.1449 32.3762 82.1591 32.4582 82.1449L32.4596 82.1446C32.6655 82.1091 32.8 81.9146 32.7654 81.7137L30.9006 70.8469L30.8117 70.3287L31.1881 69.9617L39.0803 62.2672ZM39.0803 62.2672C39.0801 62.2674 39.0805 62.267 39.0803 62.2672Z" stroke="url(#paint1_linear_2_27)" stroke-width="2"/>
<defs>
<linearGradient id="paint0_linear_2_27" x1="3.75" y1="62.0001" x2="18.75" y2="47.0001" gradientUnits="userSpaceOnUse">
<stop stop-color="#331E6D"/>
<stop offset="1" stop-color="#562EC4"/>
</linearGradient>
<linearGradient id="paint1_linear_2_27" x1="3.75" y1="62.0001" x2="18.75" y2="47.0001" gradientUnits="userSpaceOnUse">
<stop stop-color="#331E6D"/>
<stop offset="1" stop-color="#562EC4"/>
</linearGradient>
</defs>
</svg>