<svg
                width="44"
                height="44"
                viewBox="0 0 44 44"
                fill="none"
                xmlns="http://www.w3.org/2000/svg"
              >
                <path
                  d="M27.2124 15.4928L27.445 15.9644L27.9654 16.04L38.872 17.6251C38.8724 17.6252 38.8729 17.6252 38.8733 17.6253C39.0878 17.6578 39.2205 17.8513 39.1908 18.0432L39.1908 18.0432L39.1892 18.0543C39.178 18.133 39.1408 18.2076 39.0803 18.2672C39.0801 18.2674 39.0798 18.2676 39.0796 18.2678L31.1881 25.9617L30.8117 26.3287L30.9006 26.8469L32.7654 37.7137L32.7656 37.7145C32.8002 37.9154 32.6655 38.1091 32.4596 38.1446L32.4582 38.1449C32.3762 38.1591 32.293 38.1449 32.2271 38.1098L32.2226 38.1075L22.4644 32.977L21.9991 32.7323L21.5337 32.977L11.7755 38.1075L11.774 38.1083C11.7124 38.1408 11.6429 38.1554 11.5734 38.1505C11.5039 38.1455 11.4371 38.1212 11.3808 38.0803C11.3244 38.0393 11.2806 37.9834 11.2544 37.9188C11.2282 37.8543 11.2206 37.7837 11.2325 37.715L11.2327 37.7137L13.0976 26.8469L13.1865 26.3287L12.81 25.9617L4.91669 18.266L4.91663 18.266C4.84504 18.1962 4.80409 18.1009 4.80277 18.0009C4.80145 17.9015 4.8394 17.8057 4.90833 17.7342C4.96779 17.6741 5.04216 17.6371 5.12057 17.6259L5.12297 17.6256L16.0327 16.04L16.5531 15.9644L16.7857 15.4928L21.6603 5.61051C21.6606 5.60995 21.6609 5.60939 21.6611 5.60883C21.7565 5.42034 21.9847 5.34715 22.1666 5.43694L22.1677 5.43751C22.2404 5.47326 22.2993 5.53215 22.335 5.60481L22.3354 5.60567L27.2124 15.4928Z"
                  stroke="#BAB9D9"
                  stroke-width="2"
                />
              </svg>