<svg width="167" height="48" viewBox="0 0 167 48" fill="none" xmlns="http://www.w3.org/2000/svg">
<g clipPath="url(#clip0_417_2917)">
<path d="M164.987 42.4644C164.987 45.0224 162.883 47.0944 160.28 47.0944H6.23484C3.63322 47.0944 1.52148 45.0224 1.52148 42.4644V5.54179C1.52148 2.98502 3.63322 0.905762 6.23484 0.905762H160.279C162.883 0.905762 164.986 2.98502 164.986 5.54179L164.987 42.4644Z" fill="black"/>
<path d="M159.78 0.961503C162.614 0.961503 164.921 3.222 164.921 6V42C164.921 44.778 162.614 47.0385 159.78 47.0385H6.72193C3.88729 47.0385 1.58071 44.778 1.58071 42V6C1.58071 3.222 3.88729 0.961503 6.72193 0.961503H159.78ZM159.78 2.53677e-06H6.72193C3.35618 2.53677e-06 0.599609 2.7015 0.599609 6V42C0.599609 45.2985 3.35618 48 6.72193 48H159.78C163.146 48 165.902 45.2985 165.902 42V6C165.902 2.7015 163.146 2.53677e-06 159.78 2.53677e-06Z" fill="#A6A6A6"/>
<path d="M37.4902 23.7412C37.4547 19.8736 40.7216 17.992 40.871 17.9044C39.0208 15.2608 36.1531 14.8996 35.1454 14.8708C32.7368 14.6224 30.4006 16.2832 29.1736 16.2832C27.9222 16.2832 26.0329 14.8948 23.9966 14.9356C21.3762 14.9752 18.9248 16.462 17.5803 18.7708C14.8057 23.4784 16.875 30.3964 19.5334 34.2016C20.8632 36.0652 22.417 38.146 24.4509 38.0728C26.4406 37.9924 27.1839 36.8296 29.5851 36.8296C31.9642 36.8296 32.6622 38.0728 34.7364 38.026C36.8719 37.9924 38.2164 36.154 39.4996 34.2736C41.0363 32.1376 41.6535 30.034 41.6779 29.926C41.6277 29.9092 37.5307 28.3768 37.4902 23.7412Z" fill="white"/>
<path d="M33.5719 12.3676C34.6421 11.056 35.3744 9.27162 35.1711 7.46082C33.6221 7.52802 31.685 8.51082 30.5695 9.79362C29.5826 10.924 28.701 12.7768 28.9287 14.5192C30.6687 14.6464 32.4552 13.6588 33.5719 12.3676Z" fill="white"/>
<path d="M60.6556 12.0115C60.6556 13.4239 60.2233 14.4871 59.3601 15.2011C58.5605 15.8599 57.4242 16.1899 55.9523 16.1899C55.2225 16.1899 54.5981 16.1587 54.0752 16.0963V8.37914C54.7572 8.27114 55.4919 8.21594 56.2854 8.21594C57.6874 8.21594 58.7442 8.51474 59.4568 9.11234C60.2552 9.78794 60.6556 10.7539 60.6556 12.0115ZM59.3025 12.0463C59.3025 11.1307 59.0552 10.4287 58.5605 9.93913C58.0658 9.45074 57.3433 9.20594 56.3919 9.20594C55.9878 9.20594 55.6438 9.23234 55.3585 9.28754V15.1543C55.5164 15.1783 55.8054 15.1891 56.2254 15.1891C57.2074 15.1891 57.9654 14.9215 58.4993 14.3863C59.0331 13.8511 59.3025 13.0711 59.3025 12.0463Z" fill="white"/>
<path d="M67.8272 13.2447C67.8272 14.1147 67.5737 14.8275 67.0668 15.3867C66.5354 15.9615 65.8313 16.2483 64.9521 16.2483C64.1048 16.2483 63.4301 15.9735 62.9269 15.4215C62.4248 14.8707 62.1738 14.1759 62.1738 13.3383C62.1738 12.4623 62.4322 11.7435 62.9514 11.1855C63.4705 10.6275 64.1685 10.3479 65.0476 10.3479C65.895 10.3479 66.5758 10.6227 67.0913 11.1735C67.5811 11.7087 67.8272 12.3999 67.8272 13.2447ZM66.4962 13.2855C66.4962 12.7635 66.3811 12.3159 66.1521 11.9427C65.8827 11.4915 65.4995 11.2659 65.0011 11.2659C64.4856 11.2659 64.0938 11.4915 63.8244 11.9427C63.5942 12.3159 63.4803 12.7707 63.4803 13.3083C63.4803 13.8303 63.5954 14.2779 63.8244 14.6511C64.1024 15.1023 64.4893 15.3279 64.9889 15.3279C65.4787 15.3279 65.8631 15.0987 66.1399 14.6391C66.3774 14.2587 66.4962 13.8075 66.4962 13.2855Z" fill="white"/>
<path d="M77.447 10.4634L75.6409 16.1203H74.4654L73.7173 13.6639C73.5275 13.0507 73.3732 12.4411 73.2532 11.8362H73.23C73.1185 12.4579 72.9643 13.0663 72.7659 13.6639L71.9712 16.1203H70.7823L69.084 10.4634H70.4027L71.0553 13.1527C71.2133 13.7887 71.3431 14.3947 71.4472 14.9683H71.4704C71.5659 14.4955 71.7239 13.8931 71.9467 13.1647L72.7659 10.4646H73.8116L74.5965 13.1071C74.7862 13.7515 74.9405 14.3719 75.0593 14.9695H75.0948C75.1817 14.3875 75.3128 13.7671 75.4866 13.1071L76.187 10.4646H77.447V10.4634Z" fill="white"/>
<path d="M84.1007 16.1198H82.8174V12.8798C82.8174 11.8814 82.4304 11.3822 81.6541 11.3822C81.2733 11.3822 80.9659 11.519 80.7272 11.7938C80.4908 12.0686 80.3708 12.3926 80.3708 12.7634V16.1186H79.0875V12.0794C79.0875 11.5826 79.0716 11.0438 79.041 10.4606H80.1688L80.2288 11.345H80.2643C80.4137 11.0702 80.6365 10.8434 80.9292 10.6622C81.277 10.451 81.6664 10.3442 82.0925 10.3442C82.6313 10.3442 83.0794 10.5146 83.4358 10.8566C83.879 11.2754 84.1007 11.9006 84.1007 12.731V16.1198Z" fill="white"/>
<path d="M87.6385 16.1201H86.3564V7.86768H87.6385V16.1201Z" fill="white"/>
<path d="M95.1994 13.2447C95.1994 14.1147 94.9459 14.8275 94.439 15.3867C93.9076 15.9615 93.2022 16.2483 92.3243 16.2483C91.4757 16.2483 90.801 15.9735 90.299 15.4215C89.7969 14.8707 89.5459 14.1759 89.5459 13.3383C89.5459 12.4623 89.8043 11.7435 90.3235 11.1855C90.8426 10.6275 91.5406 10.3479 92.4186 10.3479C93.2671 10.3479 93.9467 10.6227 94.4635 11.1735C94.9533 11.7087 95.1994 12.3999 95.1994 13.2447ZM93.8671 13.2855C93.8671 12.7635 93.752 12.3159 93.5231 11.9427C93.2549 11.4915 92.8704 11.2659 92.3733 11.2659C91.8565 11.2659 91.4647 11.4915 91.1965 11.9427C90.9663 12.3159 90.8524 12.7707 90.8524 13.3083C90.8524 13.8303 90.9675 14.2779 91.1965 14.6511C91.4745 15.1023 91.8614 15.3279 92.361 15.3279C92.8508 15.3279 93.2341 15.0987 93.5108 14.6391C93.7496 14.2587 93.8671 13.8075 93.8671 13.2855Z" fill="white"/>
<path d="M101.407 16.1199H100.254L100.159 15.4683H100.123C99.7291 15.9879 99.167 16.2483 98.4373 16.2483C97.8924 16.2483 97.4516 16.0767 97.1198 15.7359C96.8186 15.4263 96.668 15.0411 96.668 14.5839C96.668 13.8927 96.9618 13.3659 97.5532 13.0011C98.1434 12.6363 98.9736 12.4575 100.043 12.4659V12.3603C100.043 11.6151 99.6433 11.2431 98.8438 11.2431C98.2744 11.2431 97.7724 11.3835 97.339 11.6619L97.0782 10.8363C97.6145 10.5111 98.2769 10.3479 99.0581 10.3479C100.567 10.3479 101.323 11.1279 101.323 12.6879V14.7711C101.323 15.3363 101.351 15.7863 101.407 16.1199ZM100.074 14.1759V13.3035C98.6589 13.2795 97.9512 13.6599 97.9512 14.4435C97.9512 14.7387 98.032 14.9595 98.1973 15.1071C98.3626 15.2547 98.5732 15.3279 98.8242 15.3279C99.1058 15.3279 99.3691 15.2403 99.6091 15.0663C99.8503 14.8911 99.9984 14.6691 100.054 14.3967C100.067 14.3355 100.074 14.2611 100.074 14.1759Z" fill="white"/>
<path d="M108.696 16.1201H107.557L107.497 15.2117H107.461C107.098 15.9029 106.478 16.2485 105.608 16.2485C104.912 16.2485 104.333 15.9809 103.874 15.4457C103.415 14.9105 103.186 14.2157 103.186 13.3625C103.186 12.4469 103.434 11.7053 103.934 11.1389C104.417 10.6109 105.01 10.3469 105.715 10.3469C106.49 10.3469 107.033 10.6025 107.341 11.1149H107.366V7.86768H108.65V14.5961C108.65 15.1469 108.665 15.6545 108.696 16.1201ZM107.366 13.7345V12.7913C107.366 12.6281 107.354 12.4961 107.33 12.3953C107.258 12.0929 107.103 11.8385 106.866 11.6333C106.628 11.4281 106.34 11.3249 106.008 11.3249C105.529 11.3249 105.154 11.5109 104.879 11.8841C104.606 12.2573 104.468 12.7337 104.468 13.3157C104.468 13.8749 104.599 14.3285 104.862 14.6777C105.14 15.0497 105.514 15.2357 105.983 15.2357C106.405 15.2357 106.741 15.0809 106.997 14.7701C107.245 14.4833 107.366 14.1377 107.366 13.7345Z" fill="white"/>
<path d="M119.672 13.2447C119.672 14.1147 119.418 14.8275 118.912 15.3867C118.38 15.9615 117.677 16.2483 116.797 16.2483C115.951 16.2483 115.276 15.9735 114.772 15.4215C114.27 14.8707 114.019 14.1759 114.019 13.3383C114.019 12.4623 114.277 11.7435 114.796 11.1855C115.315 10.6275 116.013 10.3479 116.894 10.3479C117.74 10.3479 118.422 10.6227 118.936 11.1735C119.426 11.7087 119.672 12.3999 119.672 13.2447ZM118.342 13.2855C118.342 12.7635 118.227 12.3159 117.998 11.9427C117.727 11.4915 117.345 11.2659 116.846 11.2659C116.332 11.2659 115.94 11.4915 115.669 11.9427C115.439 12.3159 115.325 12.7707 115.325 13.3083C115.325 13.8303 115.44 14.2779 115.669 14.6511C115.947 15.1023 116.334 15.3279 116.834 15.3279C117.323 15.3279 117.709 15.0987 117.986 14.6391C118.222 14.2587 118.342 13.8075 118.342 13.2855Z" fill="white"/>
<path d="M126.576 16.1198H125.294V12.8798C125.294 11.8814 124.907 11.3822 124.129 11.3822C123.749 11.3822 123.441 11.519 123.204 11.7938C122.966 12.0686 122.847 12.3926 122.847 12.7634V16.1186H121.563V12.0794C121.563 11.5826 121.548 11.0438 121.518 10.4606H122.644L122.704 11.345H122.74C122.89 11.0702 123.113 10.8434 123.405 10.6622C123.754 10.451 124.142 10.3442 124.569 10.3442C125.107 10.3442 125.555 10.5146 125.911 10.8566C126.356 11.2754 126.576 11.9006 126.576 12.731V16.1198Z" fill="white"/>
<path d="M135.212 11.4051H133.799V14.1531C133.799 14.8515 134.05 15.2007 134.547 15.2007C134.777 15.2007 134.968 15.1815 135.119 15.1419L135.152 16.0959C134.898 16.1895 134.565 16.2363 134.155 16.2363C133.648 16.2363 133.254 16.0851 132.968 15.7827C132.682 15.4803 132.54 14.9715 132.54 14.2575V11.4051H131.696V10.4631H132.54V9.42632L133.797 9.05432V10.4619H135.21V11.4051H135.212Z" fill="white"/>
<path d="M142.005 16.1201H140.721V12.9041C140.721 11.8901 140.334 11.3825 139.559 11.3825C138.964 11.3825 138.557 11.6765 138.334 12.2645C138.296 12.3881 138.274 12.5393 138.274 12.7169V16.1189H136.992V7.86768H138.274V11.2769H138.299C138.703 10.6565 139.282 10.3469 140.033 10.3469C140.564 10.3469 141.004 10.5173 141.353 10.8593C141.787 11.2853 142.005 11.9189 142.005 12.7565V16.1201Z" fill="white"/>
<path d="M149.006 13.0238C149.006 13.2494 148.989 13.439 148.958 13.5938H145.109C145.127 14.153 145.31 14.579 145.667 14.8742C145.992 15.1382 146.412 15.2702 146.927 15.2702C147.496 15.2702 148.015 15.1814 148.483 15.0026L148.684 15.8762C148.136 16.109 147.492 16.2254 146.747 16.2254C145.853 16.2254 145.149 15.9674 144.639 15.4514C144.127 14.9354 143.874 14.243 143.874 13.3742C143.874 12.521 144.11 11.8106 144.587 11.2442C145.084 10.6394 145.756 10.337 146.605 10.337C147.435 10.337 148.065 10.6394 148.491 11.2442C148.836 11.7242 149.006 12.3182 149.006 13.0238ZM147.781 12.6986C147.791 12.3254 147.707 12.0038 147.533 11.7326C147.31 11.3834 146.971 11.2082 146.511 11.2082C146.093 11.2082 145.751 11.3786 145.49 11.7206C145.277 11.993 145.151 12.3182 145.109 12.6986H147.781Z" fill="white"/>
<path d="M66.2883 37.8051H63.5075L61.9843 33.1143H56.6896L55.2386 37.8051H52.5312L57.7769 21.8355H61.0169L66.2883 37.8051ZM61.5251 31.1463L60.1475 26.9763C60.0018 26.5503 59.7288 25.5471 59.3259 23.9679H59.2769C59.1165 24.6471 58.8581 25.6503 58.503 26.9763L57.15 31.1463H61.5251Z" fill="white"/>
<path d="M79.7821 31.9062C79.7821 33.8647 79.2422 35.4127 78.1622 36.5491C77.1948 37.5607 75.9936 38.0659 74.5598 38.0659C73.012 38.0659 71.9002 37.5211 71.2231 36.4315H71.1741V42.4975H68.5635V30.081C68.5635 28.8498 68.5305 27.5862 68.4668 26.2902H70.7627L70.9084 28.1154H70.9574C71.828 26.7402 73.1492 26.0538 74.9222 26.0538C76.3083 26.0538 77.4654 26.5902 78.3911 27.6642C79.3193 28.7394 79.7821 30.153 79.7821 31.9062ZM77.1226 31.9998C77.1226 30.879 76.8655 29.955 76.3487 29.2278C75.7842 28.4694 75.0263 28.0902 74.0761 28.0902C73.432 28.0902 72.8467 28.3014 72.3239 28.7178C71.7998 29.1378 71.457 29.6862 71.2965 30.3654C71.2157 30.6822 71.1753 30.9414 71.1753 31.1454V33.0655C71.1753 33.9031 71.4374 34.6099 71.9614 35.1871C72.4855 35.7643 73.1663 36.0523 74.0039 36.0523C74.9871 36.0523 75.7524 35.6803 76.2997 34.9387C76.8483 34.1959 77.1226 33.2167 77.1226 31.9998Z" fill="white"/>
<path d="M93.2908 31.9062C93.2908 33.8647 92.7508 35.4127 91.6696 36.5491C90.7035 37.5607 89.5023 38.0659 88.0684 38.0659C86.5206 38.0659 85.4088 37.5211 84.7329 36.4315H84.6839V42.4975H82.0733V30.081C82.0733 28.8498 82.0402 27.5862 81.9766 26.2902H84.2725L84.4182 28.1154H84.4672C85.3366 26.7402 86.6578 26.0538 88.4321 26.0538C89.817 26.0538 90.9741 26.5902 91.9023 27.6642C92.8268 28.7394 93.2908 30.153 93.2908 31.9062ZM90.6312 31.9998C90.6312 30.879 90.3729 29.955 89.8561 29.2278C89.2917 28.4694 88.5361 28.0902 87.5847 28.0902C86.9394 28.0902 86.3553 28.3014 85.8313 28.7178C85.3072 29.1378 84.9655 29.6862 84.8051 30.3654C84.7255 30.6822 84.6839 30.9414 84.6839 31.1454V33.0655C84.6839 33.9031 84.9459 34.6099 85.4676 35.1871C85.9917 35.7631 86.6725 36.0523 87.5125 36.0523C88.4957 36.0523 89.261 35.6803 89.8084 34.9387C90.357 34.1959 90.6312 33.2167 90.6312 31.9998Z" fill="white"/>
<path d="M108.404 33.3268C108.404 34.6852 107.923 35.7904 106.957 36.6436C105.895 37.576 104.417 38.0416 102.518 38.0416C100.765 38.0416 99.359 37.7104 98.2949 37.0468L98.8998 34.9144C100.046 35.5936 101.303 35.9344 102.674 35.9344C103.657 35.9344 104.422 35.716 104.972 35.2816C105.519 34.8472 105.792 34.264 105.792 33.5368C105.792 32.8888 105.567 32.3428 105.115 31.9C104.666 31.4572 103.915 31.0456 102.867 30.6652C100.014 29.6224 98.5888 28.0948 98.5888 26.086C98.5888 24.7732 99.0884 23.6968 100.089 22.8592C101.085 22.0204 102.415 21.6016 104.078 21.6016C105.561 21.6016 106.793 21.8548 107.776 22.36L107.123 24.4456C106.205 23.956 105.167 23.7112 104.005 23.7112C103.086 23.7112 102.369 23.9332 101.854 24.3748C101.42 24.7696 101.202 25.2508 101.202 25.8208C101.202 26.452 101.45 26.974 101.95 27.3844C102.385 27.7636 103.174 28.174 104.321 28.6168C105.723 29.17 106.752 29.8168 107.415 30.5584C108.075 31.2976 108.404 32.2228 108.404 33.3268Z" fill="white"/>
<path d="M117.034 28.2098H114.157V33.8006C114.157 35.2226 114.664 35.933 115.68 35.933C116.147 35.933 116.534 35.8934 116.84 35.8142L116.912 37.757C116.398 37.9454 115.721 38.0402 114.882 38.0402C113.851 38.0402 113.045 37.7318 112.464 37.1162C111.885 36.4994 111.593 35.465 111.593 34.0118V28.2074H109.879V26.2874H111.593V24.179L114.157 23.4206V26.2874H117.034V28.2098Z" fill="white"/>
<path d="M130.017 31.9524C130.017 33.7224 129.5 35.1756 128.469 36.312C127.388 37.482 125.953 38.0652 124.164 38.0652C122.44 38.0652 121.067 37.5048 120.043 36.384C119.02 35.2632 118.508 33.8484 118.508 32.1432C118.508 30.3588 119.034 28.8972 120.091 27.7608C121.145 26.6232 122.568 26.0544 124.357 26.0544C126.081 26.0544 127.468 26.6148 128.515 27.7368C129.517 28.8252 130.017 30.2304 130.017 31.9524ZM127.308 32.0352C127.308 30.9732 127.077 30.0624 126.608 29.3028C126.06 28.3836 125.278 27.9252 124.264 27.9252C123.215 27.9252 122.418 28.3848 121.87 29.3028C121.401 30.0636 121.17 30.9888 121.17 32.0832C121.17 33.1452 121.401 34.056 121.87 34.8144C122.435 35.7336 123.223 36.192 124.241 36.192C125.238 36.192 126.02 35.724 126.584 34.7904C127.066 34.0164 127.308 33.096 127.308 32.0352Z" fill="white"/>
<path d="M138.499 28.5402C138.241 28.4934 137.965 28.4694 137.676 28.4694C136.758 28.4694 136.048 28.809 135.548 29.4894C135.114 30.0894 134.896 30.8478 134.896 31.7634V37.8054H132.286L132.311 29.9166C132.311 28.5894 132.278 27.381 132.213 26.2914H134.487L134.582 28.4946H134.654C134.93 27.7374 135.365 27.1278 135.96 26.6706C136.541 26.259 137.17 26.0538 137.847 26.0538C138.088 26.0538 138.306 26.0706 138.499 26.1006V28.5402Z" fill="white"/>
<path d="M150.178 31.5027C150.178 31.9611 150.147 32.3475 150.082 32.6631H142.25C142.281 33.8007 142.659 34.6707 143.387 35.2707C144.047 35.8071 144.9 36.0759 145.948 36.0759C147.108 36.0759 148.166 35.8947 149.117 35.5311L149.526 37.3071C148.414 37.7823 147.102 38.0187 145.587 38.0187C143.765 38.0187 142.335 37.4931 141.294 36.4431C140.256 35.3931 139.735 33.9831 139.735 32.2143C139.735 30.4779 140.219 29.0319 141.188 27.8787C142.201 26.6475 143.572 26.0319 145.296 26.0319C146.989 26.0319 148.271 26.6475 149.142 27.8787C149.831 28.8567 150.178 30.0663 150.178 31.5027ZM147.688 30.8391C147.705 30.0807 147.535 29.4255 147.181 28.8723C146.729 28.1607 146.035 27.8055 145.101 27.8055C144.247 27.8055 143.553 28.1523 143.023 28.8483C142.588 29.4015 142.33 30.0651 142.25 30.8379H147.688V30.8391Z" fill="white"/>
</g>
<defs>
<clipPath id="clip0_417_2917">
<rect width="165.6" height="48" fill="white" transform="translate(0.599609)"/>
</clipPath>
</defs>
</svg>
