<svg width="166" height="48" viewBox="0 0 166 48" fill="none" xmlns="http://www.w3.org/2000/svg">
  <path d="M159.181 48H6.12233C2.75658 48 0 45.2985 0 42V6C0 2.7015 2.75658 -2.1874e-06 6.12233 -2.1874e-06H159.181C162.546 -2.1874e-06 165.303 2.7015 165.303 6V42C165.303 45.2985 162.546 48 159.181 48Z" fill="black"/>
  <path d="M159.181 0.961498C162.015 0.961498 164.322 3.222 164.322 6V42C164.322 44.778 162.015 47.0385 159.181 47.0385H6.12233C3.28769 47.0385 0.981104 44.778 0.981104 42V6C0.981104 3.222 3.28769 0.961498 6.12233 0.961498H159.181ZM159.181 -2.1874e-06H6.12233C2.75658 -2.1874e-06 0 2.7015 0 6V42C0 45.2985 2.75658 48 6.12233 48H159.181C162.546 48 165.303 45.2985 165.303 42V6C165.303 2.7015 162.546 -2.1874e-06 159.181 -2.1874e-06Z" fill="#A6A6A6"/>
  <path d="M12.7739 9.04669C12.4142 9.4157 12.2061 9.9902 12.2061 10.7342V37.2723C12.2061 38.0163 12.4142 38.5908 12.7739 38.9598L12.8627 39.0408L28.0368 24.1757V23.8247L12.8627 8.9597L12.7739 9.04669Z" fill="url(#paint0_linear_417_2899)"/>
  <path d="M33.0876 29.1324L28.0352 24.175V23.824L33.0937 18.8665L33.207 18.931L39.1977 22.2715C40.9074 23.2195 40.9074 24.7795 39.1977 25.7334L33.207 29.0679L33.0876 29.1324Z" fill="url(#paint1_linear_417_2899)"/>
  <path d="M33.2123 29.0685L28.0404 24L12.7773 38.9595C13.3452 39.5445 14.2712 39.615 15.3242 39.03L33.2123 29.0685Z" fill="url(#paint2_linear_417_2899)"/>
  <path d="M33.2123 18.9314L15.3242 8.96995C14.2712 8.39095 13.3452 8.46145 12.7773 9.04645L28.0404 23.9999L33.2123 18.9314Z" fill="url(#paint3_linear_417_2899)"/>
  <path d="M58.0583 12.292C58.0583 13.294 57.7522 14.0965 57.1491 14.695C56.4558 15.4045 55.5527 15.7615 54.4461 15.7615C53.3885 15.7615 52.4854 15.3985 51.7446 14.683C51.0022 13.957 50.6318 13.066 50.6318 11.9995C50.6318 10.933 51.0022 10.042 51.7446 9.322C52.4854 8.60049 53.3885 8.23749 54.4461 8.23749C54.9726 8.23749 55.4747 8.34399 55.9537 8.54199C56.4313 8.74149 56.8201 9.01149 57.1017 9.3445L56.4619 9.9775C55.9706 9.409 55.3017 9.12849 54.4461 9.12849C53.6747 9.12849 53.0058 9.3925 52.4379 9.925C51.8762 10.459 51.5946 11.1505 51.5946 11.9995C51.5946 12.8485 51.8762 13.546 52.4379 14.08C53.0058 14.6065 53.6747 14.8765 54.4461 14.8765C55.265 14.8765 55.9537 14.6065 56.4971 14.074C56.8553 13.7215 57.0588 13.2355 57.1124 12.6145H54.4461V11.7475H58.0032C58.0461 11.935 58.0583 12.1165 58.0583 12.292Z" fill="white" stroke="white" strokeWidth="0.111665" strokeMiterlimit="10"/>
  <path d="M63.705 9.2864H60.3638V11.5664H63.376V12.4334H60.3638V14.7134H63.705V15.5969H59.418V8.40289H63.705V9.2864Z" fill="white" stroke="white" strokeWidth="0.111665" strokeMiterlimit="10"/>
  <path d="M67.6818 15.5969H66.736V9.2864H64.6865V8.40289H69.7328V9.2864H67.6818V15.5969Z" fill="white" stroke="white" strokeWidth="0.111665" strokeMiterlimit="10"/>
  <path d="M73.3896 15.5969V8.40289H74.3326V15.5969H73.3896Z" fill="white" stroke="white" strokeWidth="0.111665" strokeMiterlimit="10"/>
  <path d="M78.5188 15.5969H77.5805V9.2864H75.5234V8.40289H80.5759V9.2864H78.5188V15.5969Z" fill="white" stroke="white" strokeWidth="0.111665" strokeMiterlimit="10"/>
  <path d="M90.1289 14.6711C89.4049 15.3986 88.508 15.7616 87.4381 15.7616C86.3622 15.7616 85.4652 15.3986 84.7413 14.6711C84.0189 13.9451 83.6592 13.0541 83.6592 11.9996C83.6592 10.9451 84.0189 10.0541 84.7413 9.32806C85.4652 8.60055 86.3622 8.23755 87.4381 8.23755C88.5019 8.23755 89.3988 8.60055 90.1228 9.33406C90.8513 10.0661 91.211 10.9511 91.211 11.9996C91.211 13.0541 90.8513 13.9451 90.1289 14.6711ZM85.4408 14.0681C85.9856 14.6066 86.6484 14.8766 87.4381 14.8766C88.2218 14.8766 88.8906 14.6066 89.4294 14.0681C89.9728 13.5296 90.2482 12.8381 90.2482 11.9996C90.2482 11.1611 89.9728 10.4696 89.4294 9.93106C88.8906 9.39256 88.2218 9.12255 87.4381 9.12255C86.6484 9.12255 85.9856 9.39256 85.4408 9.93106C84.8974 10.4696 84.6219 11.1611 84.6219 11.9996C84.6219 12.8381 84.8974 13.5296 85.4408 14.0681Z" fill="white" stroke="white" strokeWidth="0.111665" strokeMiterlimit="10"/>
  <path d="M92.5371 15.5969V8.40289H93.685L97.2543 13.9979H97.2956L97.2543 12.6149V8.40289H98.1987V15.5969H97.213L93.4753 9.7259H93.434L93.4753 11.1149V15.5969H92.5371Z" fill="white" stroke="white" strokeWidth="0.111665" strokeMiterlimit="10"/>
  <path d="M83.422 26.1029C80.5461 26.1029 78.1966 28.2479 78.1966 31.2074C78.1966 34.1429 80.5461 36.3104 83.422 36.3104C86.3041 36.3104 88.6536 34.1429 88.6536 31.2074C88.6536 28.2479 86.3041 26.1029 83.422 26.1029ZM83.422 34.3004C81.844 34.3004 80.4864 33.0239 80.4864 31.2074C80.4864 29.3669 81.844 28.1129 83.422 28.1129C85.0001 28.1129 86.3638 29.3669 86.3638 31.2074C86.3638 33.0239 85.0001 34.3004 83.422 34.3004ZM72.0207 26.1029C69.1386 26.1029 66.7953 28.2479 66.7953 31.2074C66.7953 34.1429 69.1386 36.3104 72.0207 36.3104C74.9013 36.3104 77.2461 34.1429 77.2461 31.2074C77.2461 28.2479 74.9013 26.1029 72.0207 26.1029ZM72.0207 34.3004C70.4412 34.3004 69.0789 33.0239 69.0789 31.2074C69.0789 29.3669 70.4412 28.1129 72.0207 28.1129C73.5988 28.1129 74.9564 29.3669 74.9564 31.2074C74.9564 33.0239 73.5988 34.3004 72.0207 34.3004ZM58.4536 27.6674V29.8364H63.7387C63.5841 31.0484 63.1709 31.9394 62.5372 32.5604C61.7658 33.3104 60.5643 34.1429 58.4536 34.1429C55.2011 34.1429 52.6543 31.5704 52.6543 28.3829C52.6543 25.1954 55.2011 22.6229 58.4536 22.6229C60.2123 22.6229 61.4918 23.2964 62.4362 24.1694L63.9959 22.6409C62.675 21.4049 60.9179 20.4554 58.4536 20.4554C53.9935 20.4554 50.2451 24.0119 50.2451 28.3829C50.2451 32.7539 53.9935 36.3104 58.4536 36.3104C60.8643 36.3104 62.675 35.5364 64.0984 34.0844C65.5571 32.6549 66.0117 30.6449 66.0117 29.0219C66.0117 28.5179 65.9688 28.0544 65.8923 27.6674H58.4536ZM113.931 29.3489C113.501 28.2074 112.174 26.1029 109.471 26.1029C106.793 26.1029 104.562 28.1714 104.562 31.2074C104.562 34.0664 106.77 36.3104 109.728 36.3104C112.12 36.3104 113.501 34.8809 114.069 34.0484L112.293 32.8889C111.701 33.7379 110.894 34.3004 109.728 34.3004C108.57 34.3004 107.738 33.7799 107.206 32.7539L114.171 29.9294L113.931 29.3489ZM106.829 31.0484C106.77 29.0804 108.389 28.0724 109.549 28.0724C110.458 28.0724 111.23 28.5179 111.487 29.1554L106.829 31.0484ZM101.168 35.9999H103.457V20.9999H101.168V35.9999ZM97.4177 27.2399H97.3412C96.8269 26.6429 95.8458 26.1029 94.603 26.1029C91.9948 26.1029 89.6102 28.3469 89.6102 31.2239C89.6102 34.0844 91.9948 36.3104 94.603 36.3104C95.8458 36.3104 96.8269 35.7659 97.3412 35.1509H97.4177V35.8829C97.4177 37.8344 96.3539 38.8829 94.6382 38.8829C93.2392 38.8829 92.3714 37.8929 92.0132 37.0604L90.0219 37.8749C90.5959 39.2279 92.1157 40.8929 94.6382 40.8929C97.3228 40.8929 99.5881 39.3449 99.5881 35.5784V26.4134H97.4177V27.2399ZM94.7989 34.3004C93.2208 34.3004 91.8999 33.0059 91.8999 31.2239C91.8999 29.4254 93.2208 28.1129 94.7989 28.1129C96.3539 28.1129 97.5799 29.4254 97.5799 31.2239C97.5799 33.0059 96.3539 34.3004 94.7989 34.3004ZM124.651 20.9999H119.175V35.9999H121.459V30.3164H124.651C127.188 30.3164 129.675 28.5179 129.675 25.6574C129.675 22.7984 127.181 20.9999 124.651 20.9999ZM124.711 28.2299H121.459V23.0864H124.711C126.416 23.0864 127.39 24.4739 127.39 25.6574C127.39 26.8184 126.416 28.2299 124.711 28.2299ZM138.828 26.0744C137.178 26.0744 135.462 26.7884 134.756 28.3709L136.783 29.2034C137.219 28.3709 138.021 28.1009 138.869 28.1009C140.054 28.1009 141.255 28.7984 141.273 30.0299V30.1874C140.86 29.9534 139.976 29.6069 138.887 29.6069C136.705 29.6069 134.481 30.7844 134.481 32.9819C134.481 34.9919 136.268 36.2864 138.278 36.2864C139.815 36.2864 140.663 35.6069 141.195 34.8164H141.273V35.9759H143.479V30.2219C143.479 27.5624 141.453 26.0744 138.828 26.0744ZM138.552 34.2944C137.805 34.2944 136.764 33.9314 136.764 33.0239C136.764 31.8629 138.062 31.4174 139.186 31.4174C140.191 31.4174 140.663 31.6349 141.273 31.9214C141.094 33.3104 139.875 34.2944 138.552 34.2944ZM151.515 26.4029L148.89 32.9054H148.812L146.098 26.4029H143.635L147.713 35.4899L145.386 40.5464H147.772L154.055 26.4029H151.515ZM130.93 35.9999H133.22V20.9999H130.93V35.9999Z" fill="white"/>
  <defs>
  <linearGradient id="paint0_linear_417_2899" x1="26.6895" y1="37.5486" x2="6.55471" y2="17.0034" gradientUnits="userSpaceOnUse">
  <stop stop-color="#00A0FF"/>
  <stop offset="0.0066" stop-color="#00A1FF"/>
  <stop offset="0.2601" stop-color="#00BEFF"/>
  <stop offset="0.5122" stop-color="#00D2FF"/>
  <stop offset="0.7604" stop-color="#00DFFF"/>
  <stop offset="1" stop-color="#00E3FF"/>
  </linearGradient>
  <linearGradient id="paint1_linear_417_2899" x1="41.424" y1="23.9978" x2="11.7957" y2="23.9978" gradientUnits="userSpaceOnUse">
  <stop stop-color="#FFE000"/>
  <stop offset="0.4087" stop-color="#FFBD00"/>
  <stop offset="0.7754" stop-color="#FFA500"/>
  <stop offset="1" stop-color="#FF9C00"/>
  </linearGradient>
  <linearGradient id="paint2_linear_417_2899" x1="30.4" y1="21.2447" x2="3.09559" y2="-6.61657" gradientUnits="userSpaceOnUse">
  <stop stop-color="#FF3A44"/>
  <stop offset="1" stop-color="#C31162"/>
  </linearGradient>
  <linearGradient id="paint3_linear_417_2899" x1="8.93531" y1="47.7885" x2="21.1279" y2="35.3473" gradientUnits="userSpaceOnUse">
  <stop stop-color="#32A071"/>
  <stop offset="0.0685" stop-color="#2DA771"/>
  <stop offset="0.4762" stop-color="#15CF74"/>
  <stop offset="0.8009" stop-color="#06E775"/>
  <stop offset="1" stop-color="#00F076"/>
  </linearGradient>
  </defs>
</svg>