<svg width="148" height="58" viewBox="0 0 148 58" fill="none" xmlns="http://www.w3.org/2000/svg">
<path d="M74.5161 6.79814C70.6879 6.79814 67.8205 9.28126 67.8205 12.5034C67.8205 12.9764 67.8797 13.3163 67.9683 13.5824C66.6824 13.5824 66.2095 12.8581 66.2095 11.9417C66.2095 9.22213 70.3628 6 75.3881 6C80.6204 6 82.6749 9.50296 82.6749 14.011C82.6749 22.4654 75.4768 29.6044 68.6335 29.6044C67.4067 29.6044 66.2686 29.3679 65.5 28.2889C66.6677 22.7315 69.7124 13.5824 70.5549 11.321C70.7914 10.7002 71.6634 8.57179 72.8311 8.57179C73.0971 8.57179 73.3632 8.66048 73.644 8.8674C71.22 14.4544 68.5596 23.0862 67.3328 28.7323C67.8649 28.821 68.2048 28.8506 68.5891 28.8506C74.7969 28.8506 80.4874 20.9578 80.4874 13.7006C80.5169 8.97087 78.0634 6.79814 74.5161 6.79814Z" fill="#331E6D"/>
<path d="M90.8489 21.5192C90.8489 20.4994 90.3463 20.1151 89.7403 20.1151C86.8434 20.1151 85.7644 28.1852 84.0942 28.1852C83.3699 28.1852 82.897 26.6924 82.897 25.1404C82.897 19.5534 89.1048 6.19189 91.647 6.19189C92.3417 6.19189 92.6077 7.24131 92.6077 8.03945C92.6077 10.7591 89.3265 17.0999 85.8826 19.1839C85.1584 20.9132 84.8036 23.3668 84.8036 24.9483C84.8036 25.3917 84.8332 25.6725 84.8628 25.9386C86.2374 21.9331 88.2032 18.3562 90.8045 18.3562C92.4156 18.3562 93.0216 19.7012 93.0216 20.9871C93.0216 22.8051 91.7652 24.4753 91.7652 25.8942C91.7652 26.6776 92.1495 27.0028 92.6373 27.0028C93.9527 27.0028 96.0368 24.8744 97.2044 22.3174L97.5887 22.6721C96.362 25.5395 94.2188 27.7566 91.9722 27.7566C90.6271 27.7566 89.9472 26.9732 89.9472 25.909C89.9325 24.7118 90.8489 22.9234 90.8489 21.5192ZM86.2521 18.031C88.9422 15.8731 91.6027 10.2861 91.6027 8.79325C91.6027 8.61588 91.5731 8.55677 91.4844 8.55677C90.908 8.55677 87.7154 13.2717 86.2521 18.031Z" fill="#331E6D"/>
<path d="M106.028 21.6082C106.028 22.2881 104.329 24.2687 104.329 25.6728C104.329 26.264 104.624 26.9587 105.319 26.9587C106.368 26.9587 108.245 25.4363 110.004 22.3324L110.3 22.628C109.073 25.791 106.59 27.949 104.506 27.949C103.072 27.949 102.407 26.9291 102.407 25.8945C102.407 25.658 102.437 25.3624 102.496 25.052C100.796 27.2986 99.5101 28.4515 98.0764 28.4515C96.8496 28.4515 95.9185 27.6682 95.9185 26.0275C95.9185 22.5394 100.22 17.041 104.018 17.041C105.541 17.041 106.679 17.9131 106.679 19.2285C106.679 20.1893 106.087 20.4849 105.245 20.4849C105.334 20.1597 105.393 19.7902 105.393 19.465C105.393 18.593 105.008 17.8244 103.959 17.8244C101.21 17.8244 97.9286 23.2636 97.9286 26.1014C97.9286 26.8848 98.1947 27.2395 98.712 27.2395C100.53 27.2395 103.427 22.968 104.861 20.8692C105.201 20.9283 106.028 21.1648 106.028 21.6082Z" fill="#331E6D"/>
<path d="M118.813 21.6082C118.813 22.2881 117.114 24.2687 117.114 25.6728C117.114 26.264 117.409 26.9587 118.104 26.9587C119.153 26.9587 121.031 25.4363 122.789 22.3324L123.085 22.628C121.858 25.791 119.375 27.949 117.291 27.949C115.857 27.949 115.192 26.9291 115.192 25.8945C115.192 25.658 115.222 25.3624 115.281 25.052C113.581 27.2986 112.295 28.4515 110.862 28.4515C109.635 28.4515 108.704 27.6682 108.704 26.0275C108.704 22.5394 113.005 17.041 116.803 17.041C118.326 17.041 119.464 17.9131 119.464 19.2285C119.464 20.1893 118.873 20.4849 118.03 20.4849C118.119 20.1597 118.178 19.7902 118.178 19.465C118.178 18.593 117.794 17.8244 116.744 17.8244C113.995 17.8244 110.714 23.2636 110.714 26.1014C110.714 26.8848 110.98 27.2395 111.497 27.2395C113.315 27.2395 116.212 22.968 117.646 20.8692C117.986 20.9283 118.813 21.1648 118.813 21.6082Z" fill="#331E6D"/>
<path d="M129.692 18.0015C126.617 18.0015 123.809 22.1843 123.809 24.6379C123.809 25.5691 124.223 26.0716 124.829 26.0716C125.938 26.0716 127.667 24.3423 129.16 22.2139L129.514 20.6619C129.633 20.1003 130.047 19.1691 131.007 19.1691C131.185 19.1691 131.392 19.1987 131.628 19.2578C131.628 20.2185 130.726 23.7954 129.381 27.2688C131.288 26.3672 133.269 24.5492 134.155 22.3321L134.54 22.6278C133.638 25.2587 130.889 27.254 129.071 28.1261C127.43 32.0724 125.568 35.265 123.366 35.265C122.523 35.265 121.666 34.7625 121.666 33.5653C121.666 31.2004 124.918 29.6485 127.371 28.4217C127.903 27.0767 128.391 25.4952 128.864 23.5885C127.371 25.7169 125.731 27.3279 124.09 27.3279C122.686 27.3279 121.902 26.1898 121.902 24.4901C121.902 20.4255 126.499 16.9077 129.647 16.9077C130.756 16.9077 131.229 17.3511 131.229 17.8389C131.229 18.1936 130.963 18.4005 130.874 18.4301C130.653 18.1493 130.268 18.0015 129.692 18.0015ZM127.031 29.205C124.726 30.3727 122.553 31.629 122.553 33.2992C122.553 33.92 122.848 34.3191 123.262 34.3191C124.016 34.3339 125.479 32.9593 127.031 29.205Z" fill="#331E6D"/>
<path d="M142.994 21.6082C142.994 22.2881 141.294 24.2687 141.294 25.6728C141.294 26.264 141.59 26.9587 142.285 26.9587C143.334 26.9587 145.211 25.4363 146.97 22.3324L147.266 22.628C146.039 25.791 143.556 27.949 141.472 27.949C140.038 27.949 139.373 26.9291 139.373 25.8945C139.373 25.658 139.402 25.3624 139.462 25.052C137.762 27.2986 136.476 28.4515 135.042 28.4515C133.815 28.4515 132.884 27.6682 132.884 26.0275C132.884 22.5394 137.185 17.041 140.984 17.041C142.506 17.041 143.644 17.9131 143.644 19.2285C143.644 20.1893 143.053 20.4849 142.211 20.4849C142.299 20.1597 142.359 19.7902 142.359 19.465C142.359 18.593 141.974 17.8244 140.925 17.8244C138.176 17.8244 134.894 23.2636 134.894 26.1014C134.894 26.8848 135.16 27.2395 135.678 27.2395C137.496 27.2395 140.393 22.968 141.826 20.8692C142.181 20.9283 142.994 21.1648 142.994 21.6082Z" fill="#331E6D"/>
<path d="M69.4466 42.3157C68.545 42.3157 67.8504 42.5966 67.333 43.173C66.8157 43.7495 66.5645 44.5328 66.5645 45.5231C66.5645 46.543 66.8009 47.3411 67.2887 47.9028C67.7765 48.4644 68.4711 48.7452 69.3727 48.7452C69.9787 48.7452 70.5256 48.6713 71.0281 48.5088V48.9522C70.5552 49.1148 69.964 49.2034 69.2545 49.2034C68.2494 49.2034 67.4661 48.8783 66.8896 48.2279C66.3132 47.5776 66.0176 46.676 66.0176 45.5083C66.0176 44.7841 66.1506 44.1485 66.4314 43.5869C66.7123 43.04 67.0965 42.6114 67.6139 42.301C68.1312 42.0054 68.7372 41.8428 69.4171 41.8428C70.1118 41.8428 70.7325 41.9758 71.2942 42.2271L71.0873 42.6705C70.57 42.4488 70.0231 42.3157 69.4466 42.3157Z" fill="#331E6D"/>
<path d="M77.1919 46.4539C77.1919 47.3259 76.985 47.991 76.5563 48.4788C76.1425 48.9666 75.5513 49.203 74.8122 49.203C74.3393 49.203 73.9402 49.0848 73.5855 48.8631C73.2307 48.6414 72.9647 48.3162 72.7725 47.9024C72.5804 47.4885 72.4917 47.0008 72.4917 46.4391C72.4917 45.5671 72.6986 44.9019 73.1273 44.4142C73.5411 43.9264 74.1175 43.6899 74.8566 43.6899C75.5808 43.6899 76.1573 43.9412 76.5711 44.429C76.985 44.9315 77.1919 45.5966 77.1919 46.4539ZM72.9942 46.4539C72.9942 47.1781 73.1568 47.7546 73.482 48.1684C73.8072 48.5823 74.2506 48.7744 74.8418 48.7744C75.433 48.7744 75.8764 48.5675 76.2016 48.1684C76.5268 47.7546 76.6894 47.1929 76.6894 46.4539C76.6894 45.7149 76.5268 45.1532 76.2016 44.7541C75.8764 44.3551 75.4182 44.1481 74.8418 44.1481C74.2506 44.1481 73.8072 44.3551 73.482 44.7541C73.1568 45.1532 72.9942 45.7149 72.9942 46.4539Z" fill="#331E6D"/>
<path d="M82.6601 49.1147V45.6709C82.6601 45.1388 82.5418 44.7545 82.3201 44.5032C82.0984 44.2667 81.7437 44.1337 81.2707 44.1337C80.6352 44.1337 80.177 44.2963 79.8814 44.6215C79.5858 44.9466 79.4379 45.4639 79.4379 46.1882V49.1147H78.9502V43.8085H79.364L79.4527 44.5328H79.4823C79.8222 43.9859 80.443 43.7051 81.3298 43.7051C82.5418 43.7051 83.1331 44.3554 83.1331 45.6413V49.1147H82.6601Z" fill="#331E6D"/>
<path d="M88.8686 49.1147V45.6709C88.8686 45.1388 88.7503 44.7545 88.5286 44.5032C88.3069 44.2667 87.9522 44.1337 87.4792 44.1337C86.8437 44.1337 86.3855 44.2963 86.0899 44.6215C85.7942 44.9466 85.6464 45.4639 85.6464 46.1882V49.1147H85.1587V43.8085H85.5725L85.6612 44.5328H85.6908C86.0307 43.9859 86.6515 43.7051 87.5383 43.7051C88.7503 43.7051 89.3416 44.3554 89.3416 45.6413V49.1147H88.8686Z" fill="#331E6D"/>
<path d="M93.5092 49.2182C92.7406 49.2182 92.1346 48.9817 91.706 48.5087C91.2774 48.0357 91.0557 47.3706 91.0557 46.5134C91.0557 45.6709 91.2626 44.991 91.6764 44.4737C92.0903 43.9563 92.6519 43.7051 93.3614 43.7051C93.9822 43.7051 94.4847 43.9268 94.8395 44.3554C95.1942 44.7988 95.3863 45.3901 95.3863 46.1291V46.5134H91.5582C91.5582 47.2376 91.7356 47.7993 92.0755 48.1836C92.4155 48.5678 92.8884 48.76 93.5092 48.76C93.8196 48.76 94.0857 48.7452 94.3074 48.7009C94.5439 48.6565 94.8247 48.5678 95.1794 48.42V48.8635C94.8838 48.9965 94.603 49.0852 94.3517 49.1295C94.1004 49.1886 93.8196 49.2182 93.5092 49.2182ZM93.3614 44.1337C92.8441 44.1337 92.445 44.2963 92.1346 44.6362C91.8242 44.9762 91.6469 45.464 91.5878 46.0995H94.869C94.869 45.4787 94.736 45.0058 94.4699 44.651C94.2039 44.3111 93.8344 44.1337 93.3614 44.1337Z" fill="#331E6D"/>
<path d="M99.2737 49.2178C98.5199 49.2178 97.9139 48.9813 97.4853 48.4936C97.0567 48.0206 96.835 47.3407 96.835 46.4834C96.835 45.5966 97.0567 44.9167 97.5001 44.429C97.9435 43.9412 98.5643 43.6899 99.3329 43.6899C99.7911 43.6899 100.234 43.7638 100.648 43.9264L100.53 44.3698C100.072 44.222 99.6728 44.1334 99.3329 44.1334C98.6825 44.1334 98.1948 44.3403 97.8548 44.7393C97.5149 45.1384 97.3523 45.7149 97.3523 46.4834C97.3523 47.1929 97.5149 47.7546 97.8548 48.1684C98.1948 48.5675 98.653 48.7744 99.259 48.7744C99.7467 48.7744 100.19 48.6857 100.604 48.5084V48.9518C100.264 49.1291 99.8206 49.2178 99.2737 49.2178Z" fill="#331E6D"/>
<path d="M103.604 48.7894C103.915 48.7894 104.181 48.7598 104.403 48.7155V49.0998C104.166 49.1737 103.9 49.218 103.59 49.218C103.117 49.218 102.777 49.0998 102.555 48.8485C102.333 48.5972 102.215 48.1982 102.215 47.6661V44.2222H101.432V43.9414L102.215 43.7197L102.466 42.5225H102.718V43.8084H104.269V44.2222H102.718V47.5774C102.718 47.9912 102.791 48.2868 102.939 48.479C103.087 48.6859 103.309 48.7894 103.604 48.7894Z" fill="#331E6D"/>
<path d="M105.792 42.3304C105.792 42.02 105.895 41.8574 106.102 41.8574C106.205 41.8574 106.279 41.9018 106.338 41.9757C106.398 42.0496 106.427 42.1678 106.427 42.3156C106.427 42.4634 106.398 42.5817 106.338 42.6556C106.279 42.7443 106.205 42.7886 106.102 42.7886C105.895 42.8034 105.792 42.6408 105.792 42.3304ZM106.338 49.1146H105.851V43.8084H106.338V49.1146Z" fill="#331E6D"/>
<path d="M112.133 49.1147V45.6709C112.133 45.1388 112.014 44.7545 111.793 44.5032C111.571 44.2667 111.216 44.1337 110.743 44.1337C110.108 44.1337 109.65 44.2963 109.354 44.6215C109.058 44.9466 108.911 45.4639 108.911 46.1882V49.1147H108.423V43.8085H108.837L108.925 44.5328H108.955C109.295 43.9859 109.916 43.7051 110.803 43.7051C112.014 43.7051 112.606 44.3554 112.606 45.6413V49.1147H112.133Z" fill="#331E6D"/>
<path d="M118.769 43.8083V44.1482L117.676 44.2221C117.971 44.5916 118.119 44.9907 118.119 45.4193C118.119 45.9367 117.942 46.3505 117.602 46.6609C117.262 46.9713 116.804 47.1339 116.227 47.1339C115.991 47.1339 115.813 47.1191 115.725 47.1043C115.532 47.2078 115.385 47.326 115.281 47.4591C115.178 47.5921 115.133 47.7399 115.133 47.8877C115.133 48.0503 115.192 48.1833 115.325 48.2572C115.459 48.3311 115.665 48.3754 115.976 48.3754H116.907C117.483 48.3754 117.927 48.4937 118.237 48.7302C118.548 48.9667 118.695 49.3066 118.695 49.7648C118.695 50.3265 118.474 50.7551 118.016 51.0655C117.557 51.3759 116.907 51.5237 116.079 51.5237C115.414 51.5237 114.897 51.3906 114.527 51.1394C114.158 50.8881 113.98 50.5186 113.98 50.0604C113.98 49.6909 114.099 49.3953 114.32 49.1588C114.542 48.9223 114.853 48.7597 115.237 48.671C115.074 48.5971 114.956 48.5085 114.853 48.3754C114.749 48.2572 114.705 48.1094 114.705 47.9468C114.705 47.5921 114.926 47.2817 115.385 47.0156C115.074 46.8826 114.838 46.6905 114.66 46.4244C114.483 46.1584 114.394 45.8332 114.394 45.4932C114.394 44.9611 114.557 44.5325 114.897 44.2221C115.237 43.897 115.695 43.7344 116.257 43.7344C116.611 43.7344 116.877 43.7639 117.07 43.8378H118.769V43.8083ZM114.468 50.0161C114.468 50.7403 115.015 51.1098 116.094 51.1098C117.483 51.1098 118.178 50.6664 118.178 49.7796C118.178 49.4544 118.075 49.2327 117.853 49.0849C117.631 48.9371 117.277 48.8632 116.789 48.8632H115.917C114.956 48.8632 114.468 49.2475 114.468 50.0161ZM114.882 45.4637C114.882 45.8775 115 46.1879 115.252 46.4244C115.503 46.6461 115.828 46.7644 116.257 46.7644C116.7 46.7644 117.04 46.6461 117.277 46.4244C117.513 46.2027 117.631 45.8775 117.631 45.4489C117.631 44.9907 117.513 44.6508 117.262 44.4291C117.025 44.2074 116.685 44.0891 116.242 44.0891C115.813 44.0891 115.488 44.2073 115.237 44.4586C115 44.6951 114.882 45.0203 114.882 45.4637Z" fill="#331E6D"/>
<path d="M128.598 45.4786C128.598 46.6758 128.287 47.5774 127.652 48.1982C127.016 48.8189 126.1 49.1145 124.888 49.1145H123.173V41.9756H125.11C126.248 41.9756 127.12 42.2712 127.711 42.8772C128.302 43.4684 128.598 44.3257 128.598 45.4786ZM128.066 45.4933C128.066 44.4735 127.8 43.7049 127.282 43.1876C126.765 42.6703 125.996 42.419 124.991 42.419H123.676V48.6859H124.858C127.001 48.6711 128.066 47.6217 128.066 45.4933Z" fill="#331E6D"/>
<path d="M132.574 49.2182C131.806 49.2182 131.2 48.9817 130.771 48.5087C130.342 48.0357 130.121 47.3706 130.121 46.5134C130.121 45.6709 130.328 44.991 130.741 44.4737C131.155 43.9563 131.717 43.7051 132.426 43.7051C133.047 43.7051 133.55 43.9268 133.904 44.3554C134.259 44.7988 134.451 45.3901 134.451 46.1291V46.5134H130.623C130.623 47.2376 130.801 47.7993 131.14 48.1836C131.48 48.5678 131.953 48.76 132.574 48.76C132.885 48.76 133.151 48.7452 133.372 48.7009C133.609 48.6565 133.89 48.5678 134.244 48.42V48.8635C133.949 48.9965 133.668 49.0852 133.417 49.1295C133.151 49.1886 132.87 49.2182 132.574 49.2182ZM132.426 44.1337C131.909 44.1337 131.51 44.2963 131.2 44.6362C130.889 44.9762 130.712 45.464 130.653 46.0995H133.934C133.934 45.4787 133.801 45.0058 133.535 44.651C133.269 44.3111 132.899 44.1337 132.426 44.1337Z" fill="#331E6D"/>
<path d="M139.506 47.7398C139.506 48.2128 139.329 48.5823 138.959 48.8335C138.605 49.0848 138.087 49.2178 137.422 49.2178C136.713 49.2178 136.151 49.1144 135.737 48.8927V48.3606C136.269 48.6266 136.831 48.7596 137.422 48.7596C137.94 48.7596 138.339 48.671 138.619 48.4936C138.886 48.3162 139.033 48.0945 139.033 47.7989C139.033 47.5329 138.93 47.3111 138.708 47.119C138.486 46.9416 138.132 46.7643 137.644 46.5869C137.112 46.3948 136.742 46.2322 136.521 46.0844C136.299 45.9513 136.151 45.7888 136.033 45.6114C135.929 45.434 135.87 45.2271 135.87 44.9758C135.87 44.5768 136.033 44.2664 136.373 44.0299C136.713 43.7934 137.171 43.6899 137.777 43.6899C138.353 43.6899 138.9 43.7934 139.403 44.0151L139.225 44.4585C138.708 44.2368 138.22 44.1334 137.777 44.1334C137.348 44.1334 136.994 44.2073 136.742 44.3551C136.491 44.5029 136.358 44.695 136.358 44.9463C136.358 45.2271 136.462 45.4488 136.654 45.6114C136.846 45.774 137.23 45.9661 137.807 46.1731C138.28 46.3504 138.634 46.4982 138.856 46.646C139.078 46.7791 139.24 46.9416 139.344 47.119C139.462 47.2816 139.506 47.4885 139.506 47.7398Z" fill="#331E6D"/>
<path d="M141.103 42.3304C141.103 42.02 141.206 41.8574 141.413 41.8574C141.516 41.8574 141.59 41.9018 141.649 41.9757C141.709 42.0496 141.738 42.1678 141.738 42.3156C141.738 42.4634 141.709 42.5817 141.649 42.6556C141.59 42.7443 141.516 42.7886 141.413 42.7886C141.206 42.8034 141.103 42.6408 141.103 42.3304ZM141.664 49.1146H141.176V43.8084H141.664V49.1146Z" fill="#331E6D"/>
<path d="M147.029 47.7398C147.029 48.2128 146.852 48.5823 146.482 48.8335C146.128 49.0848 145.61 49.2178 144.945 49.2178C144.236 49.2178 143.674 49.1144 143.26 48.8927V48.3606C143.792 48.6266 144.354 48.7596 144.945 48.7596C145.463 48.7596 145.862 48.671 146.142 48.4936C146.408 48.3162 146.556 48.0945 146.556 47.7989C146.556 47.5329 146.453 47.3111 146.231 47.119C146.009 46.9416 145.655 46.7643 145.167 46.5869C144.635 46.3948 144.265 46.2322 144.044 46.0844C143.822 45.9513 143.659 45.7888 143.556 45.6114C143.452 45.434 143.393 45.2271 143.393 44.9758C143.393 44.5768 143.556 44.2664 143.896 44.0299C144.236 43.7934 144.694 43.6899 145.3 43.6899C145.876 43.6899 146.423 43.7934 146.926 44.0151L146.748 44.4585C146.231 44.2368 145.743 44.1334 145.3 44.1334C144.871 44.1334 144.517 44.2073 144.265 44.3551C144.014 44.5029 143.881 44.695 143.881 44.9463C143.881 45.2271 143.984 45.4488 144.177 45.6114C144.369 45.774 144.753 45.9661 145.33 46.1731C145.802 46.3504 146.157 46.4982 146.379 46.646C146.601 46.7791 146.763 46.9416 146.867 47.119C146.985 47.2816 147.029 47.4885 147.029 47.7398Z" fill="#331E6D"/>
<g clipPath="url(#clip0_425_4336)">
<path d="M-0.144287 28.9912C-0.144287 13.0001 12.8775 0.0405273 28.9453 0.0405273C45.013 0.0405273 58.0349 13.0049 58.0349 28.9912C58.0349 44.9823 45.013 57.9467 28.9453 57.9467C12.8775 57.9419 -0.144287 44.9823 -0.144287 28.9912Z" fill="#FFCF31"/>
<circle cx="28.838" cy="28.8379" r="21.7095" fill="#331E6D"/>
<path d="M0.962027 28.991H1.12486C1.12486 21.3475 4.23784 14.4271 9.27128 9.41278C14.3095 4.40328 21.2586 1.30467 28.9453 1.30467C36.6272 1.30467 43.5811 4.40328 48.6145 9.41278C53.648 14.4223 56.761 21.3427 56.761 28.991C56.761 36.6346 53.648 43.555 48.6145 48.5692C43.5811 53.5787 36.6272 56.6773 28.9453 56.6773C21.2634 56.6773 14.3095 53.5787 9.27607 48.5692C4.23784 43.555 1.12486 36.6346 1.12486 28.991H0.962027H0.799194C0.799194 44.4649 13.3996 57.003 28.9453 57.003C44.4862 57.003 57.0914 44.4601 57.0914 28.991C57.0914 13.5171 44.491 0.979004 28.9453 0.979004C13.3996 0.979004 0.799194 13.5171 0.799194 28.991H0.962027Z" fill="#331E6D"/>
<path d="M38.5444 17.7464L38.5018 17.7144L37.7661 17.2453C37.7555 17.2346 37.7341 17.2239 37.7128 17.2133C37.7022 17.2133 37.7022 17.2026 37.6915 17.2026C35.6232 16.0405 33.0858 15.6354 30.6976 15.9339C30.3245 15.9766 29.9407 16.0405 29.5675 15.9979C29.0878 15.9339 28.6507 15.6994 28.2135 15.4968C25.4203 14.2814 22.0086 14.9744 19.5885 16.8188C17.1577 18.6739 15.6438 21.5205 14.9401 24.495C14.7909 25.1027 14.6949 25.8063 15.0787 26.3074C15.2813 26.0089 15.3133 25.6358 15.3453 25.2839C15.6651 21.8723 17.6268 18.6526 20.5054 16.7975C23.0321 15.1663 26.0493 14.8465 28.7359 16.2751C28.043 16.3924 27.3606 16.5736 26.6996 16.7975C26.0386 17.0214 25.4096 17.2879 24.8019 17.5971C24.1942 17.9063 23.6291 18.2581 23.0854 18.6419C22.5523 19.0257 22.0513 19.4522 21.5928 19.9106C21.1344 20.3584 20.7186 20.8488 20.3454 21.3606C19.9723 21.8723 19.6631 22.4054 19.3859 22.9598C19.1087 23.5142 18.9062 24.0792 18.7569 24.6656C18.597 25.252 18.5117 25.8383 18.4904 26.4354C18.4904 26.9684 18.5757 27.5015 18.7569 28.0346C18.9275 28.5676 19.194 29.0474 19.5565 29.4845C19.919 29.911 20.3774 30.2735 20.9425 30.5507C21.5075 30.8278 22.1685 30.9664 22.9255 30.9664C25.0151 30.9664 27.0301 29.9216 28.4694 28.461C29.6635 27.2456 30.5164 25.7104 31.0495 24.0792C31.4119 22.9811 31.6358 21.819 31.5719 20.6569C31.4972 19.1323 30.8682 17.8743 30.0366 16.6376C30.2285 16.6162 33.6935 15.6247 37.425 17.725C37.7022 17.8849 37.9793 18.0555 38.2565 18.2368L38.2672 18.2474H38.2779C38.3632 18.3114 38.4591 18.3754 38.5444 18.4393L38.8536 17.9702C38.747 17.9063 38.651 17.821 38.5444 17.7464ZM30.1113 17.7144C30.3138 18.0662 30.4951 18.4287 30.655 18.8125C30.8149 19.1963 30.9322 19.5694 31.0281 19.9533C31.1241 20.3371 31.1667 20.6889 31.1667 21.0194C31.1667 21.4885 31.1241 21.9789 31.0495 22.48C30.9642 22.9811 30.8469 23.4928 30.6763 24.0046C30.5164 24.5163 30.3032 25.0281 30.058 25.5292C29.8127 26.0302 29.5249 26.5207 29.1944 27.0004C28.8639 27.4695 28.4907 27.9066 28.0749 28.3118C27.6485 28.7062 27.19 29.0581 26.689 29.3566C26.1879 29.6551 25.6441 29.9003 25.0684 30.1029C24.4927 30.2948 23.8637 30.4227 23.192 30.4867C22.7442 30.508 22.3285 30.444 21.9766 30.2841C21.6141 30.1242 21.305 29.9216 21.0384 29.6658C20.7719 29.4099 20.5693 29.1114 20.4201 28.7702C20.2815 28.429 20.1962 28.0879 20.1749 27.7361C20.1749 27.2883 20.2282 26.7979 20.3241 26.2861C20.4307 25.7744 20.58 25.252 20.7932 24.7189C20.9958 24.1858 21.2623 23.6421 21.5822 23.0984C21.902 22.5546 22.2645 22.0216 22.659 21.4992C23.0641 20.9767 23.5119 20.4757 24.0023 20.0066C24.4927 19.5268 25.0258 19.0897 25.6015 18.6845C26.1772 18.2688 26.7849 17.9063 27.4459 17.5758C28.1069 17.2453 28.7999 16.9787 29.5462 16.7762C29.7061 17.0427 29.898 17.3625 30.1113 17.7144Z" fill="#FFCF31"/>
<path d="M42.1371 25.0176C42.1904 27.1712 41.6254 29.3248 40.5592 31.2012C37.9685 35.7643 32.5845 38.3123 27.3391 38.3337H27.1579C26.966 38.3337 26.7741 38.3337 26.5928 38.323C25.2069 38.2804 23.8209 38.1524 22.4456 38.2377C20.857 38.3337 19.2258 38.7175 17.7119 38.2271C17.1789 38.0565 16.5925 37.5234 16.8803 37.0436C17.0403 36.7558 17.4241 36.6918 17.7546 36.6705C18.842 36.5959 19.9188 36.7238 20.985 36.9264C21.4221 37.0117 21.8699 37.0863 22.307 37.1716C22.7547 37.2569 26.0065 37.662 26.5182 37.726C26.6461 37.7366 26.7741 37.758 26.902 37.7686C27.1046 37.7899 27.3072 37.8006 27.5097 37.8113C30.7081 37.9605 33.9918 36.9903 36.5292 35.0393C37.2222 34.5062 37.8619 33.8985 38.427 33.2482C39.9409 31.5104 41.007 29.3781 41.4548 27.1073C41.7426 25.6786 41.7853 24.1754 41.3695 22.7681C41.0283 21.574 40.4313 20.0814 39.4931 19.2285C39.4291 19.1752 39.3758 19.1219 39.3119 19.0686C39.0666 18.8554 38.8108 18.6528 38.5549 18.4715L38.8641 18.0024C39.1199 18.1943 39.3545 18.4076 39.5784 18.6421C39.7703 18.834 39.9515 19.0366 40.1221 19.2498C41.3162 20.7211 41.9665 22.5762 42.1158 24.4632C42.1265 24.6338 42.1371 24.8257 42.1371 25.0176Z" fill="#FFCF31"/>
<path d="M40.2816 14.9961C39.6739 14.6763 38.9277 14.9108 38.6078 15.5185L37.7123 17.2137C37.7229 17.2243 37.7442 17.235 37.7656 17.2457L38.5012 17.7148L38.5332 17.7361L39.4181 15.9343C39.482 15.8064 39.61 15.7531 39.7059 15.7531C39.7592 15.7531 39.8125 15.7637 39.8552 15.7851C40.0151 15.8703 40.0791 16.0729 39.9938 16.2328C39.9938 16.2435 39.9831 16.2435 39.9831 16.2542L38.853 17.992L38.5438 18.4611L37.0832 20.6999L38.2666 18.2692L38.256 18.2585C37.9788 18.0666 37.7016 17.896 37.4244 17.7467L26.8803 37.7688L26.5818 38.3445L23.6499 43.8991L27.1468 38.3445L27.488 37.8008L39.3008 19.0581L39.5673 18.6316L40.7401 16.7552C40.7614 16.7339 40.7721 16.7019 40.7934 16.6699C41.1132 16.0622 40.8893 15.316 40.2816 14.9961Z" fill="white"/>
</g>
<defs>
<clipPath id="clip0_425_4336">
<rect width="58" height="58" fill="white"/>
</clipPath>
</defs>
</svg>
