<svg width="150" height="150" viewBox="0 0 150 150" fill="none" xmlns="http://www.w3.org/2000/svg">
<g clipPath="url(#clip0_417_3142)">
<path d="M1.31738 74.9457C1.31738 34.4402 34.3017 1.61353 75.0014 1.61353C115.701 1.61353 148.685 34.4523 148.685 74.9457C148.685 115.451 115.701 148.29 75.0014 148.29C34.3017 148.278 1.31738 115.451 1.31738 74.9457Z" fill="#FFCF31"/>
<path d="M4.11949 74.9455H4.53194C4.53194 55.5843 12.4171 38.055 25.1669 25.3538C37.9287 12.6647 55.5309 4.81588 75.0012 4.81588C94.4595 4.81588 112.074 12.6647 124.823 25.3538C137.573 38.0428 145.458 55.5722 145.458 74.9455C145.458 94.3067 137.573 111.836 124.823 124.537C112.074 137.226 94.4595 145.075 75.0012 145.075C55.543 145.075 37.9287 137.226 25.179 124.537C12.4171 111.836 4.53194 94.3067 4.53194 74.9455H4.11949H3.70703C3.70703 114.141 35.6238 145.9 75.0012 145.9C114.367 145.9 146.295 114.129 146.295 74.9455C146.295 35.7501 114.379 3.99097 75.0012 3.99097C35.6238 3.99097 3.70703 35.7501 3.70703 74.9455H4.11949Z" fill="#331E6D"/>
<path d="M48.8335 78.9246C45.6916 78.9246 43.3382 80.9626 43.3382 83.6072C43.3382 83.9954 43.3867 84.2744 43.4595 84.4928C42.4041 84.4928 42.0159 83.8983 42.0159 83.1462C42.0159 80.9141 45.4247 78.2695 49.5493 78.2695C53.8437 78.2695 55.5299 81.1446 55.5299 84.8446C55.5299 91.7835 49.6221 97.6428 44.0054 97.6428C42.9985 97.6428 42.0644 97.4487 41.4336 96.5632C42.3919 92.0019 44.8909 84.4928 45.5824 82.6367C45.7765 82.1272 46.4922 80.3803 47.4506 80.3803C47.669 80.3803 47.8873 80.4531 48.1178 80.623C46.1283 85.2085 43.9447 92.293 42.9378 96.9271C43.3746 96.9999 43.6536 97.0241 43.969 97.0241C49.064 97.0241 53.7345 90.5462 53.7345 84.5898C53.7587 80.7079 51.745 78.9246 48.8335 78.9246Z" fill="#331E6D"/>
<path d="M62.2404 91.0069C62.2404 90.1699 61.8279 89.8545 61.3305 89.8545C58.9529 89.8545 58.0673 96.478 56.6965 96.478C56.1021 96.478 55.7139 95.2528 55.7139 93.979C55.7139 89.3935 60.8089 78.427 62.8955 78.427C63.4656 78.427 63.684 79.2883 63.684 79.9434C63.684 82.1755 60.9909 87.3797 58.1643 89.0902C57.5699 90.5095 57.2788 92.5233 57.2788 93.8213C57.2788 94.1852 57.303 94.4157 57.3273 94.6341C58.4555 91.3466 60.0689 88.4109 62.204 88.4109C63.5263 88.4109 64.0236 89.5148 64.0236 90.5702C64.0236 92.0623 62.9925 93.4331 62.9925 94.5977C62.9925 95.2406 63.3079 95.5075 63.7082 95.5075C64.7879 95.5075 66.4984 93.7607 67.4567 91.662L67.7721 91.9531C66.7653 94.3066 65.0063 96.1262 63.1623 96.1262C62.0584 96.1262 61.5004 95.4833 61.5004 94.6098C61.4883 93.6272 62.2404 92.1594 62.2404 91.0069ZM58.4676 88.144C60.6755 86.3728 62.8591 81.7873 62.8591 80.5621C62.8591 80.4165 62.8348 80.368 62.762 80.368C62.2889 80.368 59.6686 84.2378 58.4676 88.144Z" fill="#331E6D"/>
<path d="M74.698 91.08C74.698 91.6381 73.303 93.2636 73.303 94.4161C73.303 94.9013 73.5456 95.4715 74.1157 95.4715C74.9771 95.4715 76.5177 94.222 77.9613 91.6745L78.2039 91.9171C77.197 94.5131 75.159 96.2843 73.4485 96.2843C72.2718 96.2843 71.7259 95.4472 71.7259 94.598C71.7259 94.404 71.7502 94.1613 71.7987 93.9066C70.4036 95.7505 69.3482 96.6967 68.1715 96.6967C67.1647 96.6967 66.4004 96.0538 66.4004 94.7072C66.4004 91.8443 69.9305 87.3315 73.0482 87.3315C74.2977 87.3315 75.2318 88.0473 75.2318 89.1269C75.2318 89.9155 74.7466 90.1581 74.0551 90.1581C74.1279 89.8912 74.1764 89.5879 74.1764 89.321C74.1764 88.6053 73.861 87.9745 72.9997 87.9745C70.7433 87.9745 68.0502 92.4387 68.0502 94.7679C68.0502 95.4108 68.2686 95.702 68.6932 95.702C70.1853 95.702 72.563 92.1961 73.7397 90.4735C74.0187 90.522 74.698 90.7161 74.698 91.08Z" fill="#331E6D"/>
<path d="M85.1922 91.08C85.1922 91.6381 83.7971 93.2636 83.7971 94.4161C83.7971 94.9013 84.0397 95.4715 84.6099 95.4715C85.4712 95.4715 87.0118 94.222 88.4554 91.6745L88.698 91.9171C87.6912 94.5131 85.6532 96.2843 83.9427 96.2843C82.766 96.2843 82.2201 95.4472 82.2201 94.598C82.2201 94.404 82.2443 94.1613 82.2929 93.9066C80.8978 95.7505 79.8424 96.6967 78.6657 96.6967C77.6588 96.6967 76.8945 96.0538 76.8945 94.7072C76.8945 91.8443 80.4247 87.3315 83.5423 87.3315C84.7918 87.3315 85.7259 88.0473 85.7259 89.1269C85.7259 89.9155 85.2407 90.1581 84.5492 90.1581C84.622 89.8912 84.6705 89.5879 84.6705 89.321C84.6705 88.6053 84.3551 87.9745 83.4938 87.9745C81.2375 87.9745 78.5444 92.4387 78.5444 94.7679C78.5444 95.4108 78.7627 95.702 79.1873 95.702C80.6794 95.702 83.0571 92.1961 84.2338 90.4735C84.5128 90.522 85.1922 90.7161 85.1922 91.08Z" fill="#331E6D"/>
<path d="M94.1194 88.1201C91.5961 88.1201 89.2912 91.5532 89.2912 93.567C89.2912 94.3312 89.6309 94.7437 90.1283 94.7437C91.0381 94.7437 92.4574 93.3243 93.6827 91.5775L93.9738 90.3037C94.0709 89.8427 94.4105 89.0785 95.1991 89.0785C95.3446 89.0785 95.5145 89.1027 95.7086 89.1512C95.7086 89.9398 94.9686 92.8755 93.8646 95.7263C95.4295 94.9863 97.0551 93.4942 97.783 91.6745L98.0984 91.9171C97.3584 94.0765 95.102 95.7141 93.6099 96.4299C92.2633 99.6689 90.7348 102.289 88.9273 102.289C88.2358 102.289 87.5322 101.877 87.5322 100.894C87.5322 98.9531 90.2011 97.6794 92.2148 96.6725C92.6515 95.5686 93.0519 94.2706 93.4401 92.7056C92.2148 94.4525 90.8683 95.7748 89.5217 95.7748C88.3693 95.7748 87.7263 94.8407 87.7263 93.4456C87.7263 90.1096 91.4991 87.2224 94.083 87.2224C94.9928 87.2224 95.381 87.5863 95.381 87.9867C95.381 88.2778 95.1627 88.4476 95.0899 88.4719C94.9079 88.2414 94.5925 88.1201 94.1194 88.1201ZM91.9358 97.3154C90.0434 98.2738 88.2601 99.3049 88.2601 100.676C88.2601 101.185 88.5027 101.513 88.8424 101.513C89.4611 101.525 90.662 100.397 91.9358 97.3154Z" fill="#331E6D"/>
<path d="M105.038 91.08C105.038 91.6381 103.643 93.2636 103.643 94.4161C103.643 94.9013 103.885 95.4715 104.456 95.4715C105.317 95.4715 106.858 94.222 108.301 91.6745L108.544 91.9171C107.537 94.5131 105.499 96.2843 103.788 96.2843C102.612 96.2843 102.066 95.4472 102.066 94.598C102.066 94.404 102.09 94.1613 102.139 93.9066C100.743 95.7505 99.6881 96.6967 98.5114 96.6967C97.5045 96.6967 96.7402 96.0538 96.7402 94.7072C96.7402 91.8443 100.27 87.3315 103.388 87.3315C104.638 87.3315 105.572 88.0473 105.572 89.1269C105.572 89.9155 105.086 90.1581 104.395 90.1581C104.468 89.8912 104.516 89.5879 104.516 89.321C104.516 88.6053 104.201 87.9745 103.34 87.9745C101.083 87.9745 98.3901 92.4387 98.3901 94.7679C98.3901 95.4108 98.6084 95.702 99.033 95.702C100.525 95.702 102.903 92.1961 104.08 90.4735C104.371 90.522 105.038 90.7161 105.038 91.08Z" fill="#331E6D"/>
<path d="M44.6738 108.075C43.9338 108.075 43.3636 108.306 42.939 108.779C42.5145 109.252 42.3082 109.895 42.3082 110.708C42.3082 111.545 42.5023 112.2 42.9026 112.661C43.303 113.122 43.8731 113.352 44.6131 113.352C45.1105 113.352 45.5593 113.292 45.9718 113.158V113.522C45.5836 113.656 45.0984 113.729 44.5161 113.729C43.6912 113.729 43.0482 113.462 42.5751 112.928C42.102 112.394 41.8594 111.654 41.8594 110.696C41.8594 110.101 41.9686 109.58 42.199 109.119C42.4295 108.67 42.7449 108.318 43.1695 108.063C43.5941 107.821 44.0915 107.687 44.6495 107.687C45.2197 107.687 45.7292 107.796 46.1902 108.003L46.0203 108.367C45.5957 108.185 45.1469 108.075 44.6738 108.075Z" fill="#331E6D"/>
<path d="M51.0295 111.472C51.0295 112.188 50.8597 112.734 50.5079 113.134C50.1682 113.535 49.683 113.729 49.0765 113.729C48.6883 113.729 48.3607 113.632 48.0696 113.45C47.7784 113.268 47.5601 113.001 47.4024 112.661C47.2447 112.322 47.1719 111.921 47.1719 111.46C47.1719 110.744 47.3417 110.199 47.6935 109.798C48.0332 109.398 48.5063 109.204 49.1128 109.204C49.7073 109.204 50.1804 109.41 50.5201 109.81C50.8597 110.223 51.0295 110.769 51.0295 111.472ZM47.5843 111.472C47.5843 112.067 47.7178 112.54 47.9847 112.88C48.2515 113.219 48.6155 113.377 49.1007 113.377C49.586 113.377 49.9499 113.207 50.2168 112.88C50.4837 112.54 50.6171 112.079 50.6171 111.472C50.6171 110.866 50.4837 110.405 50.2168 110.077C49.9499 109.75 49.5738 109.58 49.1007 109.58C48.6155 109.58 48.2515 109.75 47.9847 110.077C47.7178 110.405 47.5843 110.866 47.5843 111.472Z" fill="#331E6D"/>
<path d="M55.5185 113.656V110.829C55.5185 110.392 55.4215 110.077 55.2395 109.871C55.0575 109.677 54.7664 109.567 54.3782 109.567C53.8566 109.567 53.4805 109.701 53.2379 109.968C52.9953 110.235 52.874 110.659 52.874 111.254V113.656H52.4736V109.3H52.8133L52.8861 109.895H52.9103C53.1894 109.446 53.6989 109.216 54.4267 109.216C55.4215 109.216 55.9067 109.749 55.9067 110.805V113.656H55.5185Z" fill="#331E6D"/>
<path d="M60.6142 113.656V110.829C60.6142 110.392 60.5172 110.077 60.3352 109.871C60.1532 109.677 59.8621 109.567 59.4739 109.567C58.9523 109.567 58.5762 109.701 58.3336 109.968C58.091 110.235 57.9697 110.659 57.9697 111.254V113.656H57.5693V109.3H57.909L57.9818 109.895H58.0061C58.2851 109.446 58.7946 109.216 59.5224 109.216C60.5172 109.216 61.0024 109.749 61.0024 110.805V113.656H60.6142Z" fill="#331E6D"/>
<path d="M64.4229 113.74C63.7921 113.74 63.2947 113.546 62.9429 113.158C62.5911 112.77 62.4092 112.224 62.4092 111.52C62.4092 110.829 62.579 110.271 62.9187 109.846C63.2583 109.422 63.7193 109.216 64.3016 109.216C64.8111 109.216 65.2236 109.398 65.5147 109.749C65.8059 110.113 65.9636 110.599 65.9636 111.205V111.52H62.8216C62.8216 112.115 62.9672 112.576 63.2462 112.891C63.5252 113.207 63.9134 113.364 64.4229 113.364C64.6777 113.364 64.896 113.352 65.078 113.316C65.2721 113.279 65.5026 113.207 65.7937 113.085V113.449C65.5511 113.558 65.3206 113.631 65.1144 113.668C64.9082 113.716 64.6777 113.74 64.4229 113.74ZM64.3016 109.567C63.877 109.567 63.5495 109.701 63.2947 109.98C63.04 110.259 62.8944 110.659 62.8459 111.181H65.539C65.539 110.671 65.4298 110.283 65.2115 109.992C64.9931 109.713 64.6898 109.567 64.3016 109.567Z" fill="#331E6D"/>
<path d="M69.1549 113.741C68.5363 113.741 68.0389 113.547 67.6871 113.146C67.3353 112.758 67.1533 112.2 67.1533 111.497C67.1533 110.769 67.3353 110.211 67.6992 109.81C68.0631 109.41 68.5727 109.204 69.2035 109.204C69.5795 109.204 69.9435 109.265 70.2831 109.398L70.1861 109.762C69.81 109.641 69.4825 109.568 69.2035 109.568C68.6697 109.568 68.2694 109.738 67.9904 110.065C67.7114 110.393 67.5779 110.866 67.5779 111.497C67.5779 112.079 67.7114 112.54 67.9904 112.88C68.2694 113.207 68.6454 113.377 69.1428 113.377C69.5431 113.377 69.9071 113.304 70.2467 113.159V113.523C69.9677 113.668 69.6038 113.741 69.1549 113.741Z" fill="#331E6D"/>
<path d="M72.709 113.389C72.9638 113.389 73.1822 113.364 73.3641 113.328V113.643C73.17 113.704 72.9517 113.74 72.6969 113.74C72.3087 113.74 72.0297 113.643 71.8477 113.437C71.6658 113.231 71.5687 112.903 71.5687 112.467V109.64H70.9258V109.41L71.5687 109.228L71.775 108.245H71.9812V109.301H73.2549V109.64H71.9812V112.394C71.9812 112.734 72.0418 112.976 72.1632 113.134C72.2845 113.304 72.4664 113.389 72.709 113.389Z" fill="#331E6D"/>
<path d="M74.5039 108.087C74.5039 107.833 74.5888 107.699 74.7587 107.699C74.8436 107.699 74.9042 107.736 74.9528 107.796C75.0013 107.857 75.0255 107.954 75.0255 108.075C75.0255 108.197 75.0013 108.294 74.9528 108.354C74.9042 108.427 74.8436 108.463 74.7587 108.463C74.5888 108.476 74.5039 108.342 74.5039 108.087ZM74.9528 113.656H74.5524V109.301H74.9528V113.656Z" fill="#331E6D"/>
<path d="M79.708 113.656V110.829C79.708 110.392 79.6109 110.077 79.429 109.871C79.247 109.677 78.9558 109.567 78.5677 109.567C78.046 109.567 77.67 109.701 77.4273 109.968C77.1847 110.235 77.0634 110.659 77.0634 111.254V113.656H76.6631V109.3H77.0028L77.0755 109.895H77.0998C77.3788 109.446 77.8883 109.216 78.6162 109.216C79.6109 109.216 80.0962 109.749 80.0962 110.805V113.656H79.708Z" fill="#331E6D"/>
<path d="M85.1551 109.301V109.58L84.2574 109.64C84.5 109.944 84.6213 110.271 84.6213 110.623C84.6213 111.048 84.4757 111.387 84.1967 111.642C83.9177 111.897 83.5416 112.03 83.0685 112.03C82.8744 112.03 82.7289 112.018 82.6561 112.006C82.4984 112.091 82.3771 112.188 82.2921 112.297C82.2072 112.406 82.1708 112.528 82.1708 112.649C82.1708 112.782 82.2194 112.891 82.3285 112.952C82.4377 113.013 82.6075 113.049 82.8623 113.049H83.6266C84.0997 113.049 84.4636 113.146 84.7184 113.34C84.9731 113.534 85.0944 113.813 85.0944 114.189C85.0944 114.65 84.9124 115.002 84.5364 115.257C84.1603 115.512 83.6266 115.633 82.9472 115.633C82.4013 115.633 81.9767 115.524 81.6735 115.318C81.3702 115.111 81.2246 114.808 81.2246 114.432C81.2246 114.129 81.3217 113.886 81.5036 113.692C81.6856 113.498 81.9403 113.365 82.2557 113.292C82.1223 113.231 82.0253 113.158 81.9403 113.049C81.8554 112.952 81.819 112.831 81.819 112.697C81.819 112.406 82.001 112.151 82.3771 111.933C82.1223 111.824 81.9282 111.666 81.7826 111.448C81.6371 111.229 81.5643 110.963 81.5643 110.684C81.5643 110.247 81.6977 109.895 81.9767 109.64C82.2558 109.373 82.6318 109.24 83.0928 109.24C83.3839 109.24 83.6023 109.264 83.76 109.325H85.1551V109.301ZM81.6249 114.396C81.6249 114.99 82.0738 115.293 82.9593 115.293C84.0997 115.293 84.6698 114.929 84.6698 114.202C84.6698 113.935 84.5849 113.753 84.4029 113.631C84.221 113.51 83.9298 113.449 83.5295 113.449H82.8138C82.0253 113.449 81.6249 113.765 81.6249 114.396ZM81.9646 110.659C81.9646 110.999 82.0616 111.254 82.2679 111.448C82.4741 111.63 82.741 111.727 83.0928 111.727C83.4567 111.727 83.7357 111.63 83.9298 111.448C84.1239 111.266 84.221 110.999 84.221 110.647C84.221 110.271 84.1239 109.992 83.9177 109.81C83.7236 109.628 83.4446 109.531 83.0807 109.531C82.7289 109.531 82.462 109.628 82.2557 109.834C82.0617 110.029 81.9646 110.295 81.9646 110.659Z" fill="#331E6D"/>
<path d="M93.2216 110.671C93.2216 111.654 92.9669 112.394 92.4452 112.903C91.9236 113.413 91.1715 113.655 90.1767 113.655H88.7695V107.796H90.3587C91.2928 107.796 92.0085 108.039 92.4938 108.536C92.979 109.021 93.2216 109.725 93.2216 110.671ZM92.7849 110.683C92.7849 109.846 92.5665 109.215 92.142 108.791C91.7174 108.366 91.0866 108.16 90.2616 108.16H89.182V113.304H90.1525C91.9115 113.292 92.7849 112.43 92.7849 110.683Z" fill="#331E6D"/>
<path d="M96.4864 113.74C95.8556 113.74 95.3582 113.546 95.0064 113.158C94.6546 112.77 94.4727 112.224 94.4727 111.52C94.4727 110.829 94.6425 110.271 94.9822 109.846C95.3218 109.422 95.7828 109.216 96.3651 109.216C96.8746 109.216 97.2871 109.398 97.5782 109.749C97.8693 110.113 98.0271 110.599 98.0271 111.205V111.52H94.8851C94.8851 112.115 95.0307 112.576 95.3097 112.891C95.5887 113.207 95.9769 113.364 96.4864 113.364C96.7412 113.364 96.9595 113.352 97.1415 113.316C97.3356 113.279 97.5661 113.207 97.8572 113.085V113.449C97.6146 113.558 97.3841 113.631 97.1779 113.668C96.9595 113.716 96.729 113.74 96.4864 113.74ZM96.3651 109.567C95.9405 109.567 95.613 109.701 95.3582 109.98C95.1035 110.259 94.9579 110.659 94.9094 111.181H97.6025C97.6025 110.671 97.4933 110.283 97.2749 109.992C97.0566 109.713 96.7533 109.567 96.3651 109.567Z" fill="#331E6D"/>
<path d="M102.175 112.528C102.175 112.916 102.03 113.219 101.727 113.425C101.435 113.632 101.011 113.741 100.465 113.741C99.8827 113.741 99.4217 113.656 99.082 113.474V113.037C99.5187 113.256 99.9797 113.365 100.465 113.365C100.89 113.365 101.217 113.292 101.448 113.146C101.666 113.001 101.787 112.819 101.787 112.576C101.787 112.358 101.702 112.176 101.52 112.018C101.338 111.873 101.047 111.727 100.647 111.582C100.21 111.424 99.9069 111.29 99.725 111.169C99.543 111.06 99.4217 110.926 99.3247 110.781C99.2397 110.635 99.1912 110.465 99.1912 110.259C99.1912 109.932 99.3247 109.677 99.6037 109.483C99.8827 109.289 100.259 109.204 100.756 109.204C101.229 109.204 101.678 109.289 102.091 109.471L101.945 109.835C101.52 109.653 101.12 109.568 100.756 109.568C100.404 109.568 100.113 109.628 99.9069 109.75C99.7007 109.871 99.5915 110.029 99.5915 110.235C99.5915 110.465 99.6765 110.647 99.8342 110.781C99.9919 110.914 100.307 111.072 100.78 111.242C101.169 111.387 101.46 111.509 101.642 111.63C101.824 111.739 101.957 111.873 102.042 112.018C102.139 112.152 102.175 112.322 102.175 112.528Z" fill="#331E6D"/>
<path d="M103.485 108.087C103.485 107.833 103.57 107.699 103.74 107.699C103.825 107.699 103.886 107.736 103.934 107.796C103.983 107.857 104.007 107.954 104.007 108.075C104.007 108.197 103.983 108.294 103.934 108.354C103.886 108.427 103.825 108.463 103.74 108.463C103.57 108.476 103.485 108.342 103.485 108.087ZM103.946 113.656H103.546V109.301H103.946V113.656Z" fill="#331E6D"/>
<path d="M108.349 112.528C108.349 112.916 108.204 113.219 107.9 113.425C107.609 113.632 107.185 113.741 106.639 113.741C106.057 113.741 105.596 113.656 105.256 113.474V113.037C105.693 113.256 106.154 113.365 106.639 113.365C107.063 113.365 107.391 113.292 107.621 113.146C107.84 113.001 107.961 112.819 107.961 112.576C107.961 112.358 107.876 112.176 107.694 112.018C107.512 111.873 107.221 111.727 106.821 111.582C106.384 111.424 106.081 111.29 105.899 111.169C105.717 111.06 105.583 110.926 105.498 110.781C105.414 110.635 105.365 110.465 105.365 110.259C105.365 109.932 105.498 109.677 105.778 109.483C106.057 109.289 106.433 109.204 106.93 109.204C107.403 109.204 107.852 109.289 108.264 109.471L108.119 109.835C107.694 109.653 107.294 109.568 106.93 109.568C106.578 109.568 106.287 109.628 106.081 109.75C105.875 109.871 105.765 110.029 105.765 110.235C105.765 110.465 105.85 110.647 106.008 110.781C106.166 110.914 106.481 111.072 106.954 111.242C107.342 111.387 107.634 111.509 107.816 111.63C107.997 111.739 108.131 111.873 108.216 112.018C108.313 112.152 108.349 112.322 108.349 112.528Z" fill="#331E6D"/>
<path d="M93.3307 34.2583H54.3779V70.9911H93.3307V34.2583Z" fill="#331E6D"/>
<path d="M84.4749 39.9713L84.4264 39.9349L83.5893 39.4011C83.5772 39.389 83.5529 39.3769 83.5287 39.3647C83.5165 39.3647 83.5165 39.3526 83.5044 39.3526C81.151 38.0303 78.2638 37.5693 75.5464 37.909C75.1219 37.9575 74.6851 38.0303 74.2605 37.9818C73.7147 37.909 73.2173 37.6421 72.7199 37.4116C69.5416 36.0287 65.6596 36.8172 62.9059 38.9159C60.14 41.0267 58.4174 44.2657 57.6167 47.6502C57.4469 48.3417 57.3377 49.1423 57.7744 49.7125C58.0049 49.3728 58.0413 48.9483 58.0777 48.5479C58.4417 44.666 60.6738 41.0024 63.9492 38.8916C66.8242 37.0356 70.2573 36.6716 73.3143 38.2972C72.5258 38.4306 71.7494 38.6369 70.9973 38.8916C70.2452 39.1464 69.5294 39.4496 68.838 39.8014C68.1465 40.1532 67.5036 40.5536 66.8849 40.9903C66.2783 41.427 65.7082 41.9122 65.1865 42.4339C64.6649 42.9434 64.1918 43.5014 63.7672 44.0837C63.3426 44.666 62.9908 45.2725 62.6754 45.9034C62.36 46.5342 62.1295 47.1771 61.9597 47.8443C61.7777 48.5115 61.6806 49.1787 61.6564 49.8581C61.6564 50.4646 61.7534 51.0712 61.9597 51.6777C62.1538 52.2843 62.457 52.8302 62.8695 53.3276C63.2819 53.8128 63.8036 54.2253 64.4465 54.5407C65.0895 54.8561 65.8416 55.0138 66.7029 55.0138C69.0806 55.0138 71.3734 53.8249 73.0111 52.163C74.3697 50.78 75.3402 49.0332 75.9468 47.1771C76.3592 45.9276 76.614 44.6053 76.5412 43.283C76.4563 41.5483 75.7405 40.1168 74.7943 38.7096C75.0127 38.6854 78.9553 37.5572 83.2011 39.947C83.5165 40.129 83.832 40.3231 84.1474 40.5293L84.1595 40.5414H84.1716C84.2687 40.6142 84.3778 40.687 84.4749 40.7598L84.8267 40.226C84.7054 40.1532 84.5962 40.0562 84.4749 39.9713ZM74.8792 39.9349C75.1097 40.3352 75.316 40.7477 75.4979 41.1844C75.6799 41.6211 75.8133 42.0457 75.9225 42.4824C76.0317 42.9191 76.0802 43.3194 76.0802 43.6955C76.0802 44.2293 76.0317 44.7873 75.9468 45.3575C75.8497 45.9276 75.7163 46.5099 75.5222 47.0922C75.3402 47.6745 75.0976 48.2568 74.8186 48.8269C74.5396 49.3971 74.212 49.9551 73.836 50.501C73.4599 51.0348 73.0353 51.5322 72.5622 51.9931C72.077 52.442 71.5553 52.8423 70.9852 53.182C70.415 53.5217 69.7963 53.8007 69.1412 54.0312C68.4862 54.2495 67.7704 54.3951 67.0062 54.4679C66.4967 54.4921 66.0236 54.4194 65.6232 54.2374C65.2108 54.0554 64.859 53.8249 64.5557 53.5338C64.2524 53.2426 64.0219 52.903 63.8521 52.5148C63.6944 52.1266 63.5974 51.7384 63.5731 51.3381C63.5731 50.8286 63.6338 50.2705 63.7429 49.6882C63.8642 49.106 64.0341 48.5115 64.2767 47.905C64.5072 47.2984 64.8105 46.6797 65.1744 46.0611C65.5383 45.4424 65.9508 44.8358 66.3996 44.2414C66.8606 43.647 67.3701 43.0768 67.9281 42.5431C68.4862 41.9972 69.0927 41.4998 69.7478 41.0388C70.4029 40.5657 71.0943 40.1532 71.8465 39.7772C72.5986 39.4011 73.3871 39.0978 74.2363 38.8673C74.4183 39.1706 74.6366 39.5346 74.8792 39.9349Z" fill="#FFCF31"/>
<path d="M88.5631 48.2452C88.6238 50.6956 87.9808 53.1461 86.7677 55.2812C83.8199 60.4733 77.6937 63.3726 71.7252 63.3969H71.519C71.3006 63.3969 71.0823 63.3969 70.876 63.3847C69.299 63.3362 67.7219 63.1906 66.157 63.2877C64.3495 63.3969 62.4935 63.8336 60.7709 63.2755C60.1643 63.0815 59.4971 62.4749 59.8246 61.929C60.0066 61.6015 60.4433 61.5287 60.8194 61.5044C62.0567 61.4195 63.282 61.5651 64.4951 61.7956C64.9925 61.8926 65.502 61.9775 65.9993 62.0746C66.5088 62.1716 70.2088 62.6326 70.7911 62.7054C70.9367 62.7175 71.0822 62.7418 71.2278 62.7539C71.4583 62.7782 71.6888 62.7903 71.9193 62.8024C75.5586 62.9723 79.295 61.8683 82.1822 59.6484C82.9707 59.0418 83.6985 58.3503 84.3415 57.6103C86.0641 55.633 87.2772 53.2068 87.7867 50.6229C88.1142 48.9973 88.1628 47.2868 87.6897 45.6855C87.3015 44.3268 86.6221 42.6285 85.5546 41.658C85.4818 41.5974 85.4212 41.5367 85.3484 41.476C85.0694 41.2334 84.7782 41.0029 84.4871 40.7967L84.8389 40.2629C85.13 40.4813 85.3969 40.7239 85.6516 40.9908C85.87 41.2092 86.0762 41.4396 86.2703 41.6823C87.629 43.3564 88.369 45.4672 88.5388 47.6144C88.551 47.8085 88.5631 48.0268 88.5631 48.2452Z" fill="#FFCF31"/>
<path d="M86.4528 36.8418C85.7613 36.4778 84.9121 36.7447 84.5482 37.4362L83.5292 39.365C83.5413 39.3772 83.5656 39.3893 83.5898 39.4014L84.4269 39.9352L84.4633 39.9594L85.4702 37.9093C85.5429 37.7637 85.6885 37.7031 85.7977 37.7031C85.8583 37.7031 85.919 37.7152 85.9675 37.7395C86.1495 37.8365 86.2223 38.067 86.1252 38.249C86.1252 38.2611 86.1131 38.2611 86.1131 38.2732L84.8272 40.2506L84.4754 40.7844L82.8134 43.3319L84.16 40.566L84.1479 40.5539C83.8325 40.3355 83.5171 40.1414 83.2016 39.9716L71.204 62.7537L70.8644 63.4088L67.5283 69.729L71.5073 63.4088L71.8955 62.7901L85.3367 41.4637L85.64 40.9785L86.9744 38.8434C86.9987 38.8191 87.0108 38.7827 87.0351 38.7463C87.399 38.0549 87.1442 37.2057 86.4528 36.8418Z" fill="white"/>
</g>
<defs>
<clipPath id="clip0_417_3142">
<rect width="150" height="150" fill="white"/>
</clipPath>
</defs>
</svg>
