<svg width="224" height="56" viewBox="0 0 224 56" fill="none" xmlns="http://www.w3.org/2000/svg">
<rect x="1" y="1" width="222" height="54" rx="11" fill="#FFF8E2"/>
<path d="M44.3775 23.0343L36.4431 21.8812L32.8962 14.6905C32.7993 14.4937 32.64 14.3343 32.4431 14.2374C31.9493 13.9937 31.3493 14.1968 31.1025 14.6905L27.5556 21.8812L19.6212 23.0343C19.4025 23.0655 19.2025 23.1687 19.0493 23.3249C18.8642 23.5152 18.7622 23.7712 18.7657 24.0366C18.7692 24.3021 18.878 24.5552 19.0681 24.7405L24.8087 30.3374L23.4525 38.2405C23.4206 38.4244 23.441 38.6135 23.5112 38.7863C23.5814 38.9592 23.6986 39.1089 23.8495 39.2186C24.0005 39.3282 24.1792 39.3934 24.3653 39.4066C24.5514 39.4199 24.7375 39.3808 24.9025 39.2937L31.9993 35.5624L39.0962 39.2937C39.29 39.3968 39.515 39.4312 39.7306 39.3937C40.2743 39.2999 40.64 38.7843 40.5462 38.2405L39.19 30.3374L44.9306 24.7405C45.0868 24.5874 45.19 24.3874 45.2212 24.1687C45.3056 23.6218 44.9243 23.1155 44.3775 23.0343Z" fill="url(#paint0_linear_420_3634)"/>
<path d="M84.3775 23.0343L76.4431 21.8812L72.8962 14.6905C72.7993 14.4937 72.64 14.3343 72.4431 14.2374C71.9493 13.9937 71.3493 14.1968 71.1025 14.6905L67.5556 21.8812L59.6212 23.0343C59.4025 23.0655 59.2025 23.1687 59.0493 23.3249C58.8642 23.5152 58.7622 23.7712 58.7657 24.0366C58.7692 24.3021 58.878 24.5552 59.0681 24.7405L64.8087 30.3374L63.4525 38.2405C63.4206 38.4244 63.441 38.6135 63.5112 38.7863C63.5814 38.9592 63.6986 39.1089 63.8495 39.2186C64.0005 39.3282 64.1792 39.3934 64.3653 39.4066C64.5514 39.4199 64.7375 39.3808 64.9025 39.2937L71.9993 35.5624L79.0962 39.2937C79.29 39.3968 79.515 39.4312 79.7306 39.3937C80.2743 39.2999 80.64 38.7843 80.5462 38.2405L79.19 30.3374L84.9306 24.7405C85.0868 24.5874 85.19 24.3874 85.2212 24.1687C85.3056 23.6218 84.9243 23.1155 84.3775 23.0343Z" fill="url(#paint1_linear_420_3634)"/>
<path d="M124.377 23.0343L116.443 21.8812L112.896 14.6905C112.799 14.4937 112.64 14.3343 112.443 14.2374C111.949 13.9937 111.349 14.1968 111.102 14.6905L107.556 21.8812L99.6212 23.0343C99.4025 23.0655 99.2025 23.1687 99.0493 23.3249C98.8642 23.5152 98.7622 23.7712 98.7657 24.0366C98.7692 24.3021 98.878 24.5552 99.0681 24.7405L104.809 30.3374L103.452 38.2405C103.421 38.4244 103.441 38.6135 103.511 38.7863C103.581 38.9592 103.699 39.1089 103.85 39.2186C104.001 39.3282 104.179 39.3934 104.365 39.4066C104.551 39.4199 104.737 39.3808 104.902 39.2937L111.999 35.5624L119.096 39.2937C119.29 39.3968 119.515 39.4312 119.731 39.3937C120.274 39.2999 120.64 38.7843 120.546 38.2405L119.19 30.3374L124.931 24.7405C125.087 24.5874 125.19 24.3874 125.221 24.1687C125.306 23.6218 124.924 23.1155 124.377 23.0343Z" fill="url(#paint2_linear_420_3634)"/>
<path d="M164.377 23.0343L156.443 21.8812L152.896 14.6905C152.799 14.4937 152.64 14.3343 152.443 14.2374C151.949 13.9937 151.349 14.1968 151.102 14.6905L147.556 21.8812L139.621 23.0343C139.402 23.0655 139.202 23.1687 139.049 23.3249C138.864 23.5152 138.762 23.7712 138.766 24.0366C138.769 24.3021 138.878 24.5552 139.068 24.7405L144.809 30.3374L143.452 38.2405C143.421 38.4244 143.441 38.6135 143.511 38.7863C143.581 38.9592 143.699 39.1089 143.85 39.2186C144.001 39.3282 144.179 39.3934 144.365 39.4066C144.551 39.4199 144.737 39.3808 144.902 39.2937L151.999 35.5624L159.096 39.2937C159.29 39.3968 159.515 39.4312 159.731 39.3937C160.274 39.2999 160.64 38.7843 160.546 38.2405L159.19 30.3374L164.931 24.7405C165.087 24.5874 165.19 24.3874 165.221 24.1687C165.306 23.6218 164.924 23.1155 164.377 23.0343Z" fill="url(#paint3_linear_420_3634)"/>
<path d="M204.377 23.0343L196.443 21.8812L192.896 14.6905C192.799 14.4937 192.64 14.3343 192.443 14.2374C191.949 13.9937 191.349 14.1968 191.102 14.6905L187.556 21.8812L179.621 23.0343C179.402 23.0655 179.202 23.1687 179.049 23.3249C178.864 23.5152 178.762 23.7712 178.766 24.0366C178.769 24.3021 178.878 24.5552 179.068 24.7405L184.809 30.3374L183.452 38.2405C183.421 38.4244 183.441 38.6135 183.511 38.7863C183.581 38.9592 183.699 39.1089 183.85 39.2186C184.001 39.3282 184.179 39.3934 184.365 39.4066C184.551 39.4199 184.737 39.3808 184.902 39.2937L191.999 35.5624L199.096 39.2937C199.29 39.3968 199.515 39.4312 199.731 39.3937C200.274 39.2999 200.64 38.7843 200.546 38.2405L199.19 30.3374L204.931 24.7405C205.087 24.5874 205.19 24.3874 205.221 24.1687C205.306 23.6218 204.924 23.1155 204.377 23.0343Z" fill="url(#paint4_linear_420_3634)"/>
<rect x="1" y="1" width="222" height="54" rx="11" stroke="#FFECB5" strokeWidth="2"/>
<defs>
<linearGradient id="paint0_linear_420_3634" x1="22" y1="40" x2="46" y2="16" gradientUnits="userSpaceOnUse">
<stop stop-color="#FFA01C"/>
<stop offset="1" stop-color="#FFCA35"/>
</linearGradient>
<linearGradient id="paint1_linear_420_3634" x1="62" y1="40" x2="86" y2="16" gradientUnits="userSpaceOnUse">
<stop stop-color="#FFA01C"/>
<stop offset="1" stop-color="#FFCA35"/>
</linearGradient>
<linearGradient id="paint2_linear_420_3634" x1="102" y1="40" x2="126" y2="16" gradientUnits="userSpaceOnUse">
<stop stop-color="#FFA01C"/>
<stop offset="1" stop-color="#FFCA35"/>
</linearGradient>
<linearGradient id="paint3_linear_420_3634" x1="142" y1="40" x2="166" y2="16" gradientUnits="userSpaceOnUse">
<stop stop-color="#FFA01C"/>
<stop offset="1" stop-color="#FFCA35"/>
</linearGradient>
<linearGradient id="paint4_linear_420_3634" x1="182" y1="40" x2="206" y2="16" gradientUnits="userSpaceOnUse">
<stop stop-color="#FFA01C"/>
<stop offset="1" stop-color="#FFCA35"/>
</linearGradient>
</defs>
</svg>
