<svg width="20" height="42" viewBox="0 0 20 42" fill="none" xmlns="http://www.w3.org/2000/svg">
<path d="M17.7359 28.3965L12.7769 27.6758L10.5601 23.1817C10.4996 23.0586 10.4 22.959 10.2769 22.8984C9.96833 22.7461 9.59333 22.8731 9.43903 23.1817L7.22223 27.6758L2.26325 28.3965C2.12653 28.416 2.00153 28.4805 1.90583 28.5781C1.79013 28.6971 1.72637 28.857 1.72857 29.0229C1.73077 29.1888 1.79874 29.3471 1.91755 29.4629L5.50544 32.9609L4.65778 37.9004C4.6379 38.0153 4.65062 38.1335 4.69449 38.2415C4.73835 38.3496 4.81161 38.4432 4.90596 38.5117C5.00031 38.5802 5.11198 38.6209 5.22829 38.6292C5.3446 38.6375 5.46091 38.613 5.56403 38.5586L9.99958 36.2266L14.4351 38.5586C14.5562 38.6231 14.6968 38.6445 14.8316 38.6211C15.1715 38.5625 15.4 38.2402 15.3414 37.9004L14.4937 32.9609L18.0816 29.4629C18.1793 29.3672 18.2437 29.2422 18.2633 29.1055C18.316 28.7637 18.0777 28.4473 17.7359 28.3965Z" fill="url(#paint0_linear_1_6)"/>
<path d="M17.7359 7.39649L12.7769 6.67579L10.5601 2.18165C10.4996 2.0586 10.4 1.95899 10.2769 1.89844C9.96833 1.7461 9.59333 1.87305 9.43903 2.18165L7.22223 6.67579L2.26325 7.39649C2.12653 7.41602 2.00153 7.48048 1.90583 7.57813C1.79013 7.69705 1.72637 7.85704 1.72857 8.02294C1.73077 8.18884 1.79874 8.34709 1.91755 8.4629L5.50544 11.9609L4.65778 16.9004C4.6379 17.0153 4.65062 17.1335 4.69449 17.2415C4.73835 17.3496 4.81161 17.4432 4.90596 17.5117C5.00031 17.5802 5.11198 17.6209 5.22829 17.6292C5.3446 17.6375 5.46091 17.613 5.56403 17.5586L9.99958 15.2266L14.4351 17.5586C14.5562 17.6231 14.6968 17.6445 14.8316 17.6211C15.1715 17.5625 15.4 17.2402 15.3414 16.9004L14.4937 11.9609L18.0816 8.4629C18.1793 8.3672 18.2437 8.24219 18.2633 8.10548C18.316 7.76368 18.0777 7.44727 17.7359 7.39649Z" fill="#DDDCFD"/>
<defs>
<linearGradient id="paint0_linear_1_6" x1="3.75" y1="39.0001" x2="18.75" y2="24.0001" gradientUnits="userSpaceOnUse">
<stop stop-color="#FFA01C"/>
<stop offset="1" stop-color="#FFCA35"/>
</linearGradient>
</defs>
</svg>
