<svg width="28" height="28" viewBox="0 0 28 28" fill="none" xmlns="http://www.w3.org/2000/svg">
<path d="M3.5 16.3333C4.46833 17.0823 5.92317 17.5198 7.58333 17.5C9.2435 17.5198 10.6983 17.0823 11.6667 16.3333C12.635 15.5843 14.0898 15.1468 15.75 15.1667C17.4102 15.1468 18.865 15.5843 19.8333 16.3333M9.33333 3.5C8.96409 3.76503 8.66492 4.11597 8.46166 4.52249C8.25839 4.92902 8.15715 5.37892 8.16667 5.83333C8.15715 6.28775 8.25839 6.73764 8.46166 7.14417C8.66492 7.5507 8.96409 7.90163 9.33333 8.16667M14 3.5C13.6308 3.76503 13.3316 4.11597 13.1283 4.52249C12.9251 4.92902 12.8238 5.37892 12.8333 5.83333C12.8238 6.28775 12.9251 6.73764 13.1283 7.14417C13.3316 7.5507 13.6308 7.90163 14 8.16667" stroke="#FFB914" strokeWidth="2" strokeLinecap="round" strokeLinejoin="round"/>
<path d="M3.5 11.6665H19.8333V17.4998C19.8333 19.3564 19.0958 21.1368 17.7831 22.4496C16.4703 23.7623 14.6898 24.4998 12.8333 24.4998H10.5C8.64348 24.4998 6.86301 23.7623 5.55025 22.4496C4.2375 21.1368 3.5 19.3564 3.5 17.4998V11.6665Z" stroke="#7A52D3" strokeWidth="2" strokeLinecap="round" strokeLinejoin="round"/>
<path d="M19.537 19.5139C20.058 19.753 20.6298 19.8606 21.2022 19.827C21.7745 19.7934 22.3298 19.6198 22.8193 19.3213C23.3088 19.0229 23.7175 18.6087 24.0094 18.1153C24.3014 17.6219 24.4676 17.0643 24.4936 16.4916C24.5196 15.9189 24.4045 15.3486 24.1584 14.8308C23.9123 14.3129 23.5428 13.8635 23.0824 13.5219C22.6219 13.1804 22.0846 12.9572 21.5177 12.8719C20.9507 12.7867 20.3715 12.842 19.831 13.033" stroke="#7A52D3" strokeWidth="2" strokeLinecap="round" strokeLinejoin="round"/>
</svg>
