<svg width="28" height="28" viewBox="0 0 28 28" fill="none" xmlns="http://www.w3.org/2000/svg">
<path d="M19.6057 9.65477C20.3016 9.65477 20.8657 9.09064 20.8657 8.39477C20.8657 7.69889 20.3016 7.13477 19.6057 7.13477C18.9098 7.13477 18.3457 7.69889 18.3457 8.39477C18.3457 9.09064 18.9098 9.65477 19.6057 9.65477Z" fill="white"/>
<path d="M14.0002 8.60815C12.9338 8.60815 11.8913 8.92437 11.0047 9.51683C10.118 10.1093 9.42691 10.9514 9.01882 11.9366C8.61073 12.9218 8.50396 14.0059 8.712 15.0518C8.92004 16.0977 9.43356 17.0584 10.1876 17.8124C10.9417 18.5665 11.9024 19.08 12.9483 19.2881C13.9942 19.4961 15.0783 19.3893 16.0635 18.9812C17.0487 18.5731 17.8908 17.8821 18.4832 16.9954C19.0757 16.1087 19.3919 15.0663 19.3919 13.9999C19.3919 12.5699 18.8238 11.1985 17.8127 10.1874C16.8015 9.17621 15.4301 8.60815 14.0002 8.60815ZM14.0002 17.4999C13.3079 17.4999 12.6312 17.2946 12.0557 16.91C11.4801 16.5255 11.0315 15.9788 10.7666 15.3393C10.5017 14.6998 10.4324 13.996 10.5674 13.3171C10.7025 12.6382 11.0358 12.0145 11.5253 11.525C12.0148 11.0355 12.6384 10.7022 13.3173 10.5672C13.9963 10.4321 14.7 10.5014 15.3395 10.7663C15.9791 11.0312 16.5257 11.4798 16.9103 12.0554C17.2949 12.631 17.5002 13.3077 17.5002 13.9999C17.5002 14.9282 17.1314 15.8184 16.475 16.4748C15.8186 17.1312 14.9284 17.4999 14.0002 17.4999Z" fill="white"/>
<path d="M14 5.39175C16.8035 5.39175 17.136 5.40225 18.2429 5.453C18.9086 5.4609 19.568 5.58314 20.1924 5.81437C20.6453 5.98911 21.0567 6.25673 21.4 6.60002C21.7433 6.94331 22.0109 7.35467 22.1856 7.80763C22.4169 8.43196 22.5391 9.09139 22.547 9.75712C22.5977 10.864 22.6082 11.1965 22.6082 14.0009C22.6082 16.8052 22.5977 17.136 22.547 18.2429C22.5391 18.9086 22.4169 19.568 22.1856 20.1924C22.0109 20.6453 21.7433 21.0567 21.4 21.4C21.0567 21.7433 20.6453 22.0109 20.1924 22.1856C19.568 22.4169 18.9086 22.5391 18.2429 22.547C17.136 22.5977 16.8035 22.6082 14 22.6082C11.1965 22.6082 10.864 22.5977 9.75712 22.547C9.09139 22.5391 8.43196 22.4169 7.80763 22.1856C7.35467 22.0109 6.94331 21.7433 6.60002 21.4C6.25673 21.0567 5.98911 20.6453 5.81437 20.1924C5.58314 19.568 5.4609 18.9086 5.453 18.2429C5.40225 17.136 5.39175 16.8035 5.39175 14C5.39175 11.1965 5.40225 10.864 5.453 9.75712C5.4609 9.09139 5.58314 8.43196 5.81437 7.80763C5.98911 7.35467 6.25673 6.94331 6.60002 6.60002C6.94331 6.25673 7.35467 5.98911 7.80763 5.81437C8.43196 5.58314 9.09139 5.4609 9.75712 5.453C10.864 5.40225 11.1965 5.39175 14 5.39175ZM14 3.5C11.1484 3.5 10.7905 3.51225 9.6705 3.563C8.79968 3.58058 7.93814 3.74567 7.1225 4.05125C6.42488 4.32101 5.79133 4.73356 5.26244 5.26244C4.73356 5.79133 4.32101 6.42488 4.05125 7.1225C3.74558 7.93841 3.58049 8.80026 3.563 9.67138C3.51225 10.7914 3.5 11.1475 3.5 14C3.5 16.8525 3.51225 17.2095 3.563 18.3295C3.58058 19.2003 3.74567 20.0619 4.05125 20.8775C4.32101 21.5751 4.73356 22.2087 5.26244 22.7376C5.79133 23.2664 6.42488 23.679 7.1225 23.9488C7.93841 24.2544 8.80026 24.4195 9.67138 24.437C10.7914 24.4877 11.1484 24.5 14 24.5C16.8516 24.5 17.2095 24.4877 18.3295 24.437C19.2006 24.4195 20.0625 24.2544 20.8784 23.9488C21.576 23.679 22.2095 23.2664 22.7384 22.7376C23.2673 22.2087 23.6799 21.5751 23.9496 20.8775C24.255 20.0615 24.4198 19.1997 24.437 18.3286C24.4877 17.2086 24.5 16.8525 24.5 14C24.5 11.1475 24.4877 10.7905 24.437 9.6705C24.4194 8.79968 24.2543 7.93814 23.9488 7.1225C23.679 6.42488 23.2664 5.79133 22.7376 5.26244C22.2087 4.73356 21.5751 4.32101 20.8775 4.05125C20.0615 3.74587 19.1997 3.58108 18.3286 3.56387C17.2086 3.51137 16.8525 3.5 14 3.5Z" fill="white"/>
</svg>
