<svg width="40" height="40" viewBox="0 0 40 40" fill="none" xmlns="http://www.w3.org/2000/svg">
<g clipPath="url(#clip0_425_4549)">
<rect x="16" y="14" width="8" height="8" fill="#FFCF31"/>
<rect x="16" y="11" width="8" height="8" fill="#FFCF31"/>
<path fill-rule="evenodd" clip-rule="evenodd" d="M18.6667 30.9993C15.1945 28.3049 12.6045 25.6799 10.8967 23.1243C9.18782 20.5688 8.33337 18.0549 8.33337 15.5827C8.33337 13.6105 8.68782 11.881 9.39671 10.3944C10.1045 8.90879 11.0139 7.66602 12.125 6.66602C13.2362 5.66602 14.4862 4.91602 15.875 4.41602C17.2639 3.91602 18.6389 3.66602 20 3.66602C21.3612 3.66602 22.7362 3.91602 24.125 4.41602C25.5139 4.91602 26.7639 5.66602 27.875 6.66602C28.9862 7.66602 29.8962 8.90879 30.605 10.3944C31.3128 11.881 31.6667 13.6105 31.6667 15.5827C31.6667 18.0549 30.8123 20.5688 29.1034 23.1243C27.3956 25.6799 24.8056 28.3049 21.3334 30.9993L20 31.9993L18.6667 30.9993ZM22.355 17.686C21.7017 18.3393 20.9167 18.666 20 18.666C19.0834 18.666 18.2989 18.3393 17.6467 17.686C16.9934 17.0338 16.6667 16.2493 16.6667 15.3327C16.6667 14.416 16.9934 13.631 17.6467 12.9777C18.2989 12.3255 19.0834 11.9993 20 11.9993C20.9167 11.9993 21.7017 12.3255 22.355 12.9777C23.0073 13.631 23.3334 14.416 23.3334 15.3327C23.3334 16.2493 23.0073 17.0338 22.355 17.686Z" fill="#562EC4"/>
<path d="M21 31V30H19V31H21ZM19 37C19 37.5523 19.4477 38 20 38C20.5523 38 21 37.5523 21 37H19ZM19 31V37H21V31H19Z" fill="#562EC4"/>
<path d="M21 34V33H19V34H21ZM19 37C19 37.5523 19.4477 38 20 38C20.5523 38 21 37.5523 21 37H19ZM19 34V37H21V34H19Z" fill="#562EC4"/>
</g>
<defs>
<clipPath id="clip0_425_4549">
<rect width="40" height="40" fill="white"/>
</clipPath>
</defs>
</svg>
