<svg width="28" height="28" viewBox="0 0 28 28" fill="none" xmlns="http://www.w3.org/2000/svg">
<path d="M10.43 21.8224C11.908 21.8317 13.3731 21.5474 14.7404 20.9861C16.1077 20.4248 17.3499 19.5976 18.3951 18.5525C19.4402 17.5074 20.2674 16.2651 20.8287 14.8978C21.39 13.5305 21.6743 12.0654 21.665 10.5874V10.0712C22.4311 9.50983 23.0943 8.82006 23.625 8.03241C22.9036 8.34793 22.1402 8.55719 21.3587 8.65366C22.1873 8.15996 22.809 7.38286 23.1087 6.46615C22.3366 6.92942 21.4898 7.25509 20.6062 7.42866C20.0112 6.7946 19.2238 6.37433 18.3658 6.23287C17.5078 6.09141 16.6271 6.23664 15.86 6.6461C15.0929 7.05556 14.4821 7.70642 14.1222 8.49797C13.7622 9.28952 13.6731 10.1776 13.8688 11.0249C12.299 10.9479 10.7631 10.541 9.36106 9.83097C7.959 9.1209 6.72222 8.12348 5.73125 6.90365C5.23156 7.77093 5.0801 8.79569 5.30754 9.77044C5.53498 10.7452 6.12433 11.5971 6.95625 12.1537C6.34254 12.13 5.74302 11.9621 5.20625 11.6637V11.7074C5.2008 12.6138 5.50613 13.4946 6.07137 14.2031C6.6366 14.9117 7.42759 15.4051 8.3125 15.6012C7.74168 15.7547 7.14376 15.7786 6.5625 15.6712C6.81869 16.4441 7.30772 17.1189 7.96254 17.603C8.61736 18.087 9.40589 18.3567 10.22 18.3749C8.82806 19.4954 7.09808 20.1121 5.31125 20.1249C4.99796 20.1158 4.6854 20.0895 4.375 20.0462C6.18359 21.1984 8.28555 21.8059 10.43 21.7962" fill="white"/>
</svg>
